<svg width="160" height="160" viewBox="0 0 160 160" fill="none" xmlns="http://www.w3.org/2000/svg">
<circle cx="80" cy="80" r="80" fill="#FEFFDF"/>
<path d="M114.145 53.8762C114.145 55.0206 113.783 56.1394 113.104 57.091C112.426 58.0426 111.461 58.7844 110.332 59.2224C109.204 59.6605 107.961 59.7752 106.763 59.552C105.565 59.3288 104.464 58.7777 103.6 57.9685C102.736 57.1593 102.148 56.1283 101.909 55.0058C101.671 53.8834 101.793 52.72 102.261 51.6627C102.729 50.6055 103.521 49.7019 104.537 49.0662C105.553 48.4306 106.747 48.0914 107.969 48.0917C109.607 48.092 111.178 48.7015 112.336 49.7863C113.494 50.871 114.145 52.3421 114.145 53.8762ZM133.765 80L133.763 80.0728L133.413 101.05C133.321 108.614 130.073 115.844 124.362 121.193C118.652 126.541 110.933 129.584 102.858 129.669L80.3824 130L80.3046 129.999L57.9081 129.671C49.8326 129.586 42.1135 126.543 36.4027 121.194C30.6919 115.846 27.4431 108.616 27.3516 101.052L27 80L27.0015 79.9271L27.3513 58.949C27.4431 51.3852 30.692 44.1555 36.4027 38.8069C42.1134 33.4583 49.8324 30.4156 57.9079 30.33L80.3824 30L80.4601 30.0014L102.857 30.329C110.932 30.4147 118.651 33.4574 124.361 38.806C130.072 44.1547 133.32 51.3844 133.412 58.9481L133.765 80ZM123.822 80L123.473 59.0952C123.411 53.9533 121.203 49.0383 117.321 45.4021C113.439 41.7659 108.191 39.6974 102.701 39.6393L80.3824 39.3129L58.0634 39.6393C52.5736 39.6976 47.3262 41.7661 43.4441 45.4022C39.5619 49.0383 37.3534 53.9533 37.2911 59.0952L36.9426 80L37.2911 100.905C37.3532 106.047 39.5616 110.962 43.4438 114.598C47.326 118.234 52.5736 120.303 58.0634 120.361L80.3824 120.687L102.701 120.361C108.191 120.303 113.439 118.234 117.321 114.598C121.203 110.962 123.411 106.047 123.473 100.905L123.822 80ZM107.795 80C107.795 85.0783 106.188 90.0426 103.175 94.2651C100.163 98.4875 95.8818 101.779 90.8727 103.722C85.8635 105.665 80.3516 106.174 75.0339 105.183C69.7162 104.192 64.8316 101.747 60.9978 98.1559C57.164 94.5649 54.5532 89.9898 53.4954 85.0091C52.4377 80.0283 52.9806 74.8656 55.0555 70.1739C57.1304 65.4821 60.6441 61.472 65.1522 58.6507C69.6604 55.8294 74.9605 54.3235 80.3824 54.3236C87.6503 54.3313 94.6182 57.0389 99.7574 61.8525C104.897 66.6661 107.787 73.1926 107.795 80ZM97.8544 80C97.8544 76.7632 96.8297 73.5992 94.9098 70.9079C92.9899 68.2167 90.2611 66.1191 87.0684 64.8805C83.8757 63.6418 80.3626 63.3177 76.9733 63.9492C73.584 64.5807 70.4708 66.1394 68.0272 68.4281C65.5837 70.7168 63.9196 73.6329 63.2455 76.8074C62.5714 79.982 62.9174 83.2725 64.2399 86.2629C65.5623 89.2532 67.8019 91.8091 70.6752 93.6073C73.5485 95.4055 76.9267 96.3653 80.3824 96.3652C85.0146 96.3602 89.4556 94.6344 92.731 91.5664C96.0065 88.4984 97.8492 84.3387 97.8544 80Z" fill="#F2994A"/>
</svg>
