<svg width="160" height="160" viewBox="0 0 160 160" fill="none" xmlns="http://www.w3.org/2000/svg">
<circle cx="80" cy="80" r="80" fill="#FEFFDF"/>
<path d="M57.8125 66.6875L80 89.0312L102.188 66.6875L124.531 44.5H80H35.4688L57.8125 66.6875Z" fill="#F2994A"/>
<path d="M30 78.875V109.344L45.1562 94.0312L60.4688 78.875L45.1562 63.7188L30 48.4062V78.875Z" fill="#F2994A"/>
<path d="M114.375 64.0312L99.5312 78.875L114.844 94.1875L130 109.344V79.1875C130 62.7812 129.844 49.1875 129.531 49.1875C129.375 49.1875 122.5 55.9062 114.375 64.0312Z" fill="#F2994A"/>
<path d="M50.4684 98.25C39.0621 109.656 36.5621 113.094 38.5934 113.875C42.0309 115.125 117.968 115.125 121.406 113.875C123.437 113.094 120.937 109.656 109.531 98.25L94.9996 83.5625L89.8434 88.5625C86.4059 91.8438 83.2809 93.4062 79.9996 93.4062C76.7184 93.4062 73.5934 91.8438 70.1559 88.5625L64.9996 83.5625L50.4684 98.25Z" fill="#F2994A"/>
</svg>
