<svg width="160" height="160" viewBox="0 0 160 160" fill="none" xmlns="http://www.w3.org/2000/svg">
<circle cx="80" cy="80" r="80" fill="#FEFFDF"/>
<path fill-rule="evenodd" clip-rule="evenodd" d="M118.209 45.0728C108.173 35.6803 94.8256 30.5054 80.6051 30.5C51.3048 30.5 27.4572 52.7899 27.4458 80.1872C27.4417 88.9454 29.8896 97.4938 34.5417 105.029L27 130.779L55.1805 123.869C62.9449 127.828 71.687 129.914 80.584 129.917H80.6056C80.6073 129.917 80.6043 129.917 80.606 129.917C109.903 129.917 133.752 107.625 133.765 80.227C133.77 66.9494 128.246 54.4649 118.209 45.0728ZM80.6054 121.525H80.5875C72.6595 121.522 64.8833 119.531 58.0994 115.768L56.4862 114.873L39.7635 118.973L44.2272 103.733L43.1766 102.17C38.7538 95.5943 36.4179 87.9939 36.4214 80.1901C36.4309 57.4185 56.2521 38.8924 80.6233 38.8924C92.4246 38.8959 103.518 43.1977 111.86 51.0044C120.202 58.8111 124.794 69.1879 124.789 80.2235C124.779 102.997 104.958 121.525 80.6054 121.525Z" fill="#F2994A"/>
<path fill-rule="evenodd" clip-rule="evenodd" d="M104.841 90.5925C103.513 89.971 96.9821 86.9678 95.7646 86.5531C94.5472 86.1388 93.6616 85.9316 92.7762 87.1745C91.8909 88.4173 89.3453 91.2141 88.5704 92.0429C87.7957 92.8712 87.0206 92.9754 85.6927 92.3534C84.3645 91.7319 80.0846 90.421 75.0113 86.191C71.0624 82.8985 68.3968 78.8329 67.6217 77.5896C66.8471 76.3469 67.5393 75.675 68.2043 75.0557C68.8019 74.4992 69.5327 73.6057 70.1969 72.8805C70.8609 72.1558 71.0823 71.6374 71.5251 70.8094C71.9679 69.9806 71.7467 69.2554 71.4144 68.6342C71.0823 68.0127 68.426 61.9014 67.3192 59.4149C66.2407 56.9942 65.1458 57.3222 64.3304 57.2837C63.5568 57.2476 62.6701 57.2401 61.7847 57.2401C60.8994 57.2401 59.4601 57.5509 58.2428 58.7937C57.0254 60.0368 53.5938 63.0408 53.5938 69.1516C53.5938 75.2631 58.3533 81.1671 59.0175 81.9955C59.6815 82.8245 68.3837 95.3651 81.708 100.743C84.877 102.023 87.3512 102.787 89.2801 103.359C92.4621 104.304 95.3577 104.17 97.6463 103.851C100.198 103.494 105.505 100.847 106.612 97.9471C107.719 95.0466 107.719 92.5603 107.386 92.0427C107.055 91.525 106.169 91.2141 104.841 90.5925Z" fill="#F2994A"/>
</svg>
