<svg width="80" height="70" viewBox="0 0 80 70" fill="none" xmlns="http://www.w3.org/2000/svg">
<path d="M24.3005 0.695122C22.7531 1.64859 18.267 4.88414 16.8759 6.05645C15.3441 7.32253 12.6556 10.0892 11.4052 11.6679C6.96606 17.2636 3.52731 25.079 1.65163 33.7853C0.338649 39.8812 -0.31784 47.9623 0.151081 52.1513C1.08892 60.42 7.09111 66.9848 15.3128 68.7511C17.1573 69.1419 20.9712 69.1419 22.8156 68.7511C26.692 67.9071 29.7712 66.2346 32.5066 63.4992C36.1486 59.8416 38.0086 55.4025 38.0242 50.2756C38.0399 47.7435 37.8523 46.4149 37.1802 44.2891C34.6949 36.4894 27.4423 31.1437 19.2987 31.0968C17.2511 31.0968 15.5786 31.3 13.9842 31.7533C12.765 32.0972 12.7963 32.2847 13.4215 29.4868C15.0315 22.2967 18.0013 14.9503 22.5811 6.82235C26.5982 -0.305244 26.7545 -0.821053 24.3005 0.695122Z" fill="#F2994A"/>
<path d="M66.9727 0.272736C65.816 0.866699 61.3612 3.9772 59.3136 5.61843C56.7502 7.65042 53.6866 10.9641 51.7015 13.8558C45.6524 22.609 42.0261 35.5512 41.9948 48.4778C41.9792 51.854 42.0261 52.4949 42.3231 53.886C44.3082 63.1081 52.4361 69.4698 61.6895 69.0634C66.5663 68.8445 70.7084 67.0939 74.1784 63.7646C77.2733 60.7791 79.149 57.1215 79.7898 52.7762C80.3525 48.9467 79.7898 45.336 78.0704 41.8191C75.4132 36.364 70.6302 32.6439 64.675 31.4247C61.9396 30.8776 57.8443 31.0496 55.656 31.8311C55.2809 31.9561 54.937 32.0343 54.9058 32.003C54.812 31.9249 55.234 29.7209 55.656 28.111C57.4692 20.9521 60.1421 14.5435 64.7844 6.29055C67.3009 1.82018 67.8323 0.788544 67.8323 0.366516C67.8323 -0.0398788 67.6135 -0.0711441 66.9727 0.272736Z" fill="#F2994A"/>
</svg>
