<svg width="47" height="48" viewBox="0 0 47 48" fill="none" xmlns="http://www.w3.org/2000/svg">
<path d="M26.7638 0.189003C26.5875 0.310932 26.3556 0.53603 26.2535 0.67672C26.0587 0.939335 26.0587 1.02375 26.0308 6.57618C26.0123 11.866 25.9937 12.2037 25.8453 12.138C25.502 12.0067 24.2587 11.7159 23.5814 11.6128L22.8577 11.5096V8.69586C22.8577 5.97592 22.8484 5.86337 22.6535 5.51634C22.5236 5.27248 22.3102 5.0849 22.0412 4.95359C21.6608 4.76601 21.5401 4.75663 20.4731 4.81291C13.5423 5.18807 7.49285 8.65835 3.6331 14.4734C-0.0318199 20.0071 -0.903977 27.154 1.28569 33.5693C2.48259 37.0677 4.8671 40.5473 7.72481 42.9578C14.9062 49.0261 25.2607 49.6826 33.0174 44.571C34.706 43.4549 34.938 43.1923 34.938 42.4138C34.938 41.9167 35.0029 42.0199 33.0545 39.4781L31.4679 37.4053L32.1545 36.6831C32.5256 36.2892 33.0823 35.6139 33.3885 35.1919C33.8246 34.5728 33.9637 34.4415 34.0565 34.5353C34.1215 34.5916 35.04 35.7828 36.107 37.1802C37.174 38.5683 38.1854 39.8064 38.3524 39.9189C38.8163 40.2378 39.4101 40.2097 39.9575 39.8439C40.5513 39.45 42.0358 38.015 42.741 37.1521C44.0121 35.6045 45.2183 33.4474 45.8585 31.5903C46.3781 30.0615 46.7956 27.7073 46.7956 26.2817C46.7956 25.6345 46.5822 25.175 46.1461 24.8655L45.8399 24.6591H40.9967H36.1534L36.0328 23.9275C35.9307 23.2898 35.606 22.0142 35.4297 21.5359C35.3648 21.3858 35.6524 21.3764 40.5513 21.3764H45.7379L46.1461 21.1701C46.8141 20.8231 46.9255 20.5323 46.8977 19.1348C46.7863 11.9129 42.4348 5.11304 35.8936 1.95228C33.4627 0.770508 31.0225 0.160866 28.2854 0.0295601C27.1257 -0.0267143 27.07 -0.0173378 26.7638 0.189003ZM30.1504 3.04026C33.7318 3.65928 36.9514 5.38504 39.4658 8.02995C40.7276 9.3524 41.5348 10.5154 42.342 12.138C43.2791 14.042 43.8358 15.9178 44.0585 17.9718L44.1235 18.5627H39.1039H34.0936L33.4442 17.6811C32.2844 16.1054 31.1246 14.9799 29.5195 13.8825L28.7958 13.3948V8.15187V2.89957H29.0648C29.204 2.89957 29.6957 2.96522 30.1504 3.04026ZM20.0742 9.59626V11.5096L19.3134 11.6221C15.2309 12.2224 11.4825 14.6328 9.1815 18.1125C7.49285 20.673 6.71348 23.2991 6.71348 26.3943C6.71348 30.6336 8.28151 34.3009 11.3526 37.2553C15.9082 41.6353 22.6628 42.5732 28.304 39.6188L29.2504 39.1217L30.2988 40.4911C30.8741 41.2414 31.4029 41.9355 31.4586 42.0199C31.5607 42.1606 31.4957 42.2262 30.8555 42.6107C28.7865 43.83 26.3741 44.6835 23.9711 45.0212C22.8391 45.1806 20.102 45.1806 18.9608 45.0212C10.9908 43.9051 4.58876 37.6773 3.14135 29.6301C2.89083 28.2607 2.84444 25.325 3.04856 23.8807C3.8465 18.15 7.08461 13.2166 12.0206 10.2247C13.7 9.21172 15.9825 8.33008 17.8938 7.97367C19.2391 7.72044 19.3226 7.71106 19.7309 7.6923L20.0742 7.68292V9.59626ZM23.6185 14.4922C28.1741 15.3363 31.9225 18.8722 33.0638 23.3836C33.639 25.6721 33.5184 28.2701 32.739 30.4742C30.2061 37.5554 21.9669 40.6411 15.5464 36.9176C11.7609 34.7229 9.49696 30.7931 9.49696 26.3943C9.49696 22.1549 11.5567 18.4032 15.1567 16.1147C17.634 14.5297 20.7051 13.9482 23.6185 14.4922ZM43.9193 27.5573C43.9193 27.6135 43.8358 28.1013 43.7338 28.6452C43.2235 31.2995 42.0637 33.6725 40.273 35.7171C39.5585 36.5331 39.308 36.7394 39.1874 36.6081C39.1503 36.5612 38.2781 35.417 37.239 34.057L35.3648 31.5903L35.6524 30.5398C35.8751 29.7051 36.2184 27.9324 36.2184 27.5385C36.2184 27.501 37.9534 27.4729 40.0688 27.4729C42.4348 27.4729 43.9193 27.5104 43.9193 27.5573Z" fill="#EDEDED"/>
<path d="M20.8538 17.0621C20.2878 17.3528 20.0744 17.803 20.0744 18.7316C20.0744 19.5569 20.0466 19.5944 19.4806 19.5944C18.7754 19.5944 17.7084 20.1103 17.059 20.7668C15.7786 22.0612 15.5188 24.2465 16.4559 25.8034C16.7899 26.3662 17.5971 27.0977 18.1816 27.3791C18.9332 27.7449 19.6847 27.8481 21.6981 27.8481C23.1641 27.8481 23.4053 27.8668 23.6558 28.0263C24.4537 28.514 24.4073 29.7989 23.5723 30.2585C23.3125 30.4086 23.0156 30.4273 21.327 30.4273H19.3785L18.8218 30.1272C18.1909 29.7802 17.7734 29.7426 17.2909 29.9865C16.6136 30.3242 16.3538 31.1683 16.7157 31.8811C17.0126 32.5001 18.2744 33.1004 19.5455 33.2411L20.0744 33.2973V34.0664C20.0744 35.0231 20.2414 35.3889 20.8259 35.7078C21.4847 36.0642 22.1249 35.8954 22.6166 35.2201C22.7744 35.0137 22.8208 34.7886 22.8393 34.1321L22.8764 33.2973L23.3032 33.2411C25.4094 32.9503 26.8846 31.4309 27.0053 29.4144C27.1444 27.1728 25.6228 25.3251 23.4053 25.0343C23.0342 24.9874 22.0136 24.9405 21.16 24.9405C19.4249 24.9405 19.1837 24.8749 18.8682 24.3497C18.5064 23.7588 18.6919 22.9428 19.2672 22.5958C19.5363 22.4269 19.7404 22.4082 21.4661 22.4082C23.563 22.4082 23.5166 22.3988 24.3795 23.1022C25.0754 23.6556 26.0867 23.4586 26.4764 22.6896C26.8568 21.9392 26.6063 21.2358 25.7156 20.5699C24.862 19.9321 24.528 19.8008 23.0713 19.5382C22.895 19.5007 22.8764 19.435 22.8393 18.6659C22.8208 18 22.7744 17.7749 22.6166 17.5686C22.1434 16.912 21.494 16.7338 20.8538 17.0621Z" fill="#EDEDED"/>
</svg>
