<svg width="53" height="48" viewBox="0 0 53 48" fill="none" xmlns="http://www.w3.org/2000/svg">
<path d="M32.7869 0.10359C29.5729 0.533861 27.2901 1.54407 25.2275 3.45223C23.3652 5.17332 22.2438 7.06278 21.663 9.44799C21.3727 10.664 21.3527 12.9744 21.613 14.1249C22.1937 16.6223 23.2951 18.5211 25.1674 20.2516C26.6893 21.664 28.1712 22.5245 30.1336 23.1419C31.9158 23.7031 34.2988 23.8715 36.1511 23.5722C40.837 22.8145 44.7418 19.6716 46.1336 15.5186C46.7343 13.7414 46.8945 11.59 46.5541 9.82214C45.6029 4.83659 41.3076 0.945427 35.9409 0.187773C35.0397 0.0661736 33.4377 0.0194054 32.7869 0.10359ZM36.4014 3.12485C39.255 3.81703 41.5879 5.6223 42.8495 8.1104C43.8507 10.0653 44.0009 12.5067 43.28 14.6393C42.5091 16.9216 40.6668 18.914 38.3439 19.9803C36.7419 20.7099 36.051 20.8502 34.0385 20.8502C32.4765 20.8502 32.2663 20.8222 31.4452 20.5883C29.7832 20.1206 28.4916 19.4097 27.28 18.2873C24.807 16.0237 23.8558 12.8247 24.7168 9.64442C25.648 6.2303 28.6117 3.66737 32.4165 2.98454C33.4177 2.80682 35.4102 2.8723 36.4014 3.12485Z" fill="#EDEDED"/>
<path d="M33.4275 4.6681C33.027 4.83648 32.6966 5.22935 32.6265 5.65028C32.5765 5.94961 32.5064 6.01509 32.0258 6.21152C31.3049 6.5015 30.4738 7.34336 30.2235 8.01686C29.9432 8.76518 29.9732 9.78477 30.2936 10.4302C30.6841 11.2159 30.9845 11.4872 33.0571 12.9277C34.1184 13.6574 35.0295 14.3402 35.0796 14.4337C35.1497 14.546 35.1397 14.6769 35.0596 14.836C34.9394 15.0418 34.8693 15.0605 34.1184 15.0885C33.3574 15.1166 33.2874 15.0979 33.1572 14.9014C33.0771 14.7798 32.977 14.5179 32.9369 14.3121C32.8568 13.8538 32.3261 13.3674 31.8255 13.2738C31.0445 13.1335 30.1735 13.6854 30.0233 14.415C29.9231 14.9108 30.2235 15.9117 30.644 16.4823C31.0546 17.0342 31.4851 17.3709 32.1359 17.6422C32.4763 17.7825 32.5865 17.876 32.5865 18.0351C32.5865 18.615 33.3474 19.223 34.0683 19.223C34.8193 19.223 35.41 18.774 35.5602 18.1005C35.6103 17.8573 35.7004 17.7638 36.0608 17.6235C36.6315 17.399 37.4526 16.6694 37.7529 16.1268C38.1835 15.3224 38.2436 14.1531 37.8831 13.3767C37.5327 12.6191 37.1422 12.273 35.1997 10.926C34.1184 10.1776 33.1772 9.50415 33.1171 9.41997C32.9369 9.21418 32.9569 9.05516 33.1872 8.84001C33.3474 8.69035 33.5176 8.65293 34.0483 8.65293C34.8693 8.65293 35.0696 8.74647 35.1397 9.19547C35.2798 9.99992 35.7304 10.4302 36.4914 10.505C37.8431 10.6266 38.4839 9.44803 37.8731 7.93267C37.6128 7.26853 36.7617 6.43602 36.0708 6.17411C35.6904 6.02444 35.5902 5.94026 35.5502 5.7064C35.3599 4.78035 34.3587 4.29394 33.4275 4.6681Z" fill="#EDEDED"/>
<path d="M21.4023 24.47C19.59 24.6852 17.3472 25.5738 15.9054 26.6495C15.0043 27.3136 14.0531 28.2958 13.4023 29.2405C12.9918 29.8298 12.381 30.3256 12.2509 30.1853C12.2108 30.1479 12.1307 29.9608 12.0706 29.7737C12.0005 29.5866 11.8003 29.306 11.6101 29.1564C10.9492 28.6138 10.9592 28.6045 6.13322 30.1479C3.73022 30.9149 1.64762 31.6071 1.50745 31.7006C1.36727 31.7848 1.17703 31.9532 1.08692 32.0841C0.686421 32.6547 0.676408 32.5986 3.38979 40.0163C4.80156 43.8701 6.02308 47.1346 6.11319 47.2843C6.32346 47.6117 6.93422 47.9391 7.32471 47.9391C7.4849 47.9391 9.12695 47.462 10.9693 46.8727C16.2559 45.189 16.396 45.1423 16.6864 44.8803C17.0368 44.5717 17.207 44.0946 17.1269 43.6737L17.0569 43.3557H17.8378C19.0393 43.3557 28.1807 43.0844 30.4836 42.9815C32.8065 42.8786 33.9179 42.6915 35.7001 42.1396C36.9016 41.7655 38.043 41.2791 39.1244 40.6524C39.7352 40.3063 47.9554 34.8716 49.7777 33.6182C51.0893 32.7109 51.7201 31.869 52.0005 30.653C52.7013 27.5942 49.8277 24.7413 46.5336 25.1996C46.1131 25.2558 45.5023 25.4241 45.1619 25.5832C44.8315 25.7328 43.2495 26.6776 41.6475 27.6784L38.7439 29.5118L38.5437 29.2593C38.0731 28.6419 37.202 27.931 36.5812 27.6597C35.6901 27.2575 34.9692 27.1733 32.5562 27.1733H30.4736L29.8728 26.7243C27.5299 24.9471 24.376 24.1052 21.4023 24.47ZM24.0155 27.2669C25.5975 27.482 26.9993 28.1087 28.401 29.2405C28.8416 29.596 29.3021 29.9047 29.4123 29.9327C29.5324 29.9608 30.8541 29.9889 32.3359 29.9982C34.9492 30.0263 35.0493 30.0356 35.3997 30.2414C36.3109 30.7652 36.5011 31.8409 35.8303 32.5986C35.6801 32.7576 35.4698 32.9354 35.3497 33.0008C35.1995 33.085 33.8778 33.1224 30.3635 33.1598C25.7377 33.2066 25.5875 33.216 25.3172 33.4031C24.376 34.0578 24.356 35.1803 25.2671 35.7509L25.6075 35.966H30.4235C35.59 35.966 35.7402 35.9473 36.7414 35.4703C37.7427 34.9932 38.5637 34.114 38.9442 33.1131L39.1244 32.6454L42.7689 30.363C45.2821 28.7916 46.5336 28.0526 46.824 27.9965C48.5762 27.6223 49.8277 29.6802 48.5962 30.8962C48.3159 31.1675 38.4035 37.7807 37.5124 38.2858C35.7201 39.296 33.5374 39.9789 31.585 40.1285C30.3334 40.2314 16.1157 40.6243 16.0556 40.5588C15.9455 40.4559 13.2621 33.0382 13.3122 32.9821C13.3422 32.9634 13.8028 32.6828 14.3335 32.3741C15.2246 31.8503 15.3247 31.7568 15.6851 31.1488C16.2358 30.2321 16.8466 29.5586 17.7177 28.8944C19.4999 27.5381 21.7327 26.9582 24.0155 27.2669ZM11.7002 37.4346C12.7815 40.4092 13.6626 42.888 13.6626 42.9441C13.6626 43.0283 8.35599 44.7962 8.29592 44.7307C8.25587 44.6839 4.36101 33.983 4.33097 33.852C4.31094 33.7304 4.84161 33.5247 6.85412 32.8792C8.25587 32.4209 9.47739 32.0467 9.5675 32.0467C9.69767 32.0374 10.1683 33.2534 11.7002 37.4346Z" fill="#EDEDED"/>
</svg>
