<svg width="48" height="49" viewBox="0 0 48 49" fill="none" xmlns="http://www.w3.org/2000/svg">
<path d="M39.1795 11.9606C39.1796 12.51 39.0168 13.047 38.7117 13.5038C38.4066 13.9606 37.9728 14.3166 37.4654 14.5269C36.9579 14.7371 36.3994 14.7922 35.8607 14.685C35.3219 14.5779 34.827 14.3134 34.4386 13.925C34.0501 13.5365 33.7856 13.0416 33.6785 12.5029C33.5713 11.9641 33.6264 11.4057 33.8367 10.8982C34.0469 10.3907 34.403 9.95697 34.8598 9.65185C35.3165 9.34674 35.8536 9.18394 36.4029 9.18406C37.1392 9.18421 37.8454 9.47679 38.3661 9.99747C38.8867 10.5181 39.1793 11.2243 39.1795 11.9606V11.9606ZM48.0003 24.5002L47.9998 24.5351L47.8421 34.6043C47.8011 38.235 46.3406 41.7053 43.7732 44.2727C41.2058 46.8401 37.7354 48.3006 34.1048 48.3416L24.0002 48.5003L23.9652 48.4996L13.896 48.3424C10.2653 48.3014 6.79486 46.8409 4.22735 44.2736C1.65984 41.7062 0.199217 38.2358 0.158058 34.6051L0 24.5002L0.000685778 24.4652L0.157944 14.3956C0.199219 10.765 1.65988 7.29469 4.22736 4.72734C6.79485 2.15998 10.2652 0.699495 13.8959 0.658401L24.0002 0.5L24.0351 0.500686L34.1044 0.657944C37.7349 0.699041 41.2052 2.15955 43.7726 4.72692C46.34 7.2943 47.8005 10.7646 47.8416 14.3952L48.0003 24.5002ZM43.5304 24.5002L43.3733 14.4658C43.3455 11.9976 42.3526 9.63844 40.6072 7.89306C38.8619 6.14769 36.5027 5.1548 34.0345 5.12689L24.0002 4.9702L13.9658 5.12689C11.4976 5.15486 9.13846 6.14775 7.39308 7.89311C5.6477 9.63847 4.65478 11.9976 4.62678 14.4658L4.47009 24.5002L4.62678 34.5345C4.65469 37.0027 5.64759 39.3619 7.39299 41.1073C9.13838 42.8527 11.4976 43.8455 13.9658 43.8734L24.0002 44.0301L34.0345 43.8734C36.5027 43.8456 38.862 42.8527 40.6073 41.1074C42.3527 39.362 43.3455 37.0027 43.3733 34.5345L43.5304 24.5002ZM36.3248 24.5002C36.3248 26.9378 35.602 29.3206 34.2477 31.3474C32.8935 33.3742 30.9686 34.9539 28.7165 35.8868C26.4644 36.8196 23.9863 37.0637 21.5956 36.5881C19.2048 36.1125 17.0087 34.9387 15.2851 33.215C13.5614 31.4914 12.3876 29.2953 11.9121 26.9045C11.4365 24.5138 11.6806 22.0356 12.6135 19.7836C13.5463 17.5315 15.126 15.6067 17.1529 14.2524C19.1797 12.8982 21.5626 12.1754 24.0002 12.1754C27.2678 12.1791 30.4005 13.4788 32.711 15.7893C35.0215 18.0999 36.3212 21.2326 36.3248 24.5002V24.5002ZM31.8554 24.5002C31.8554 22.9465 31.3947 21.4278 30.5315 20.1359C29.6684 18.8441 28.4415 17.8373 27.0061 17.2427C25.5708 16.6482 23.9913 16.4926 22.4675 16.7957C20.9437 17.0988 19.544 17.847 18.4454 18.9456C17.3468 20.0442 16.5987 21.4439 16.2956 22.9677C15.9925 24.4915 16.1481 26.071 16.7427 27.5064C17.3372 28.9417 18.3441 30.1686 19.6359 31.0317C20.9278 31.8949 22.4465 32.3555 24.0002 32.3555C26.0828 32.3531 28.0794 31.5247 29.552 30.0521C31.0246 28.5794 31.853 26.5828 31.8553 24.5002H31.8554Z" fill="url(#paint0_linear_63_1431)"/>
<defs>
<linearGradient id="paint0_linear_63_1431" x1="24.0002" y1="0.5" x2="24.0002" y2="48.5003" gradientUnits="userSpaceOnUse">
<stop stop-color="#F2994A"/>
<stop offset="1" stop-color="#F2C94C"/>
</linearGradient>
</defs>
</svg>
