<svg width="49" height="44" viewBox="0 0 49 44" fill="none" xmlns="http://www.w3.org/2000/svg">
<path d="M16.3101 0.803921C16.2256 0.851233 16.1037 1.02155 16.038 1.17295C15.9442 1.4095 15.963 1.57982 16.1787 2.33679C17.5579 7.17195 21.1042 11.8084 25.842 14.9593C29.3226 17.2681 32.9627 18.659 36.8093 19.1416L38.1039 19.3024L38.0383 20.4568C37.9726 21.6112 37.9726 21.6112 38.2165 21.8477C38.3573 21.9991 38.5543 22.0938 38.7231 22.0938C39.0327 22.0938 39.0421 22.0843 43.1044 19.0942C45.9846 16.9653 46.1535 16.8044 46.0315 16.3029C45.9846 16.1421 45.0465 15.2715 43.0857 13.6157C39.5206 10.5783 39.7082 10.7203 39.3142 10.7581C38.7888 10.8054 38.6668 11.0798 38.5824 12.3951L38.5074 13.5305L38.0383 13.5021C35.5521 13.3413 31.7619 12.3477 28.7503 11.0703C24.4535 9.25362 20.6632 6.15003 18.224 2.4598C17.9144 1.98669 17.586 1.47573 17.5016 1.30541C17.2389 0.784998 16.7135 0.567368 16.3101 0.803921ZM21.6202 8.4588C25.2321 11.5151 30.1857 13.7198 35.6553 14.7133C36.9781 14.9498 39.0796 15.1485 39.4174 15.0634C39.7645 14.9688 39.924 14.6187 39.9897 13.8333C40.0084 13.4832 40.0554 13.1615 40.0835 13.1331C40.1304 13.0952 43.3108 15.7257 43.93 16.3218C44.0895 16.4732 43.9957 16.5584 41.8942 18.1007C40.6745 18.9996 39.6613 19.7282 39.6332 19.7282C39.605 19.7282 39.605 19.416 39.6426 19.028C39.6988 18.3657 39.6895 18.3089 39.4737 18.0913C39.2767 17.8926 39.1172 17.8452 38.498 17.7979C36.434 17.6276 34.9235 17.3532 33.2067 16.8233C28.1686 15.2905 23.2901 11.7989 20.4474 7.69236L20.0346 7.09625L20.4474 7.46527C20.682 7.66398 21.2074 8.1087 21.6202 8.4588Z" fill="#EDEDED"/>
<path d="M11.5264 8.809C10.9447 8.98878 10.2974 9.58491 10.0441 10.1716C9.82828 10.6825 9.78138 10.7109 9.39672 10.5122C7.92378 9.74577 6.00052 11.0043 6.00052 12.7264C6.00052 13.5023 6.31012 14.0511 7.25768 14.9974C7.69862 15.4326 8.06451 15.8206 8.06451 15.849C8.06451 15.8773 7.92378 15.953 7.76429 16.0193C6.19753 16.587 5.77535 18.8201 7.00437 19.9935C7.24829 20.2206 7.32335 20.353 7.25768 20.4382C7.21077 20.5044 6.84488 20.9397 6.43208 21.3939C3.49558 24.7246 1.50664 27.7999 0.896825 29.9667C-0.529206 34.9818 1.97573 40.0252 7.00437 42.2488C10.0065 43.583 14.0689 43.6398 17.1555 42.4002L17.9811 42.0596H32.9075C43.6496 42.0596 47.8996 42.0312 48.0591 41.9555C48.4249 41.7852 48.5 41.4824 48.5 40.186C48.4906 38.5396 48.4156 38.4639 46.8676 38.4639H45.8731V33.8747C45.8731 30.6764 45.845 29.2192 45.7699 29.0584C45.5823 28.642 45.3477 28.6136 42.2705 28.642L39.3809 28.6704L39.2027 28.8975C39.0338 29.1057 39.0244 29.3328 39.0244 33.7895V38.4639H37.4764H35.9284V31.2347C35.9284 23.7784 35.919 23.5229 35.5531 23.3242C35.4499 23.2674 34.174 23.2296 32.429 23.2296C29.6614 23.2296 29.4644 23.239 29.258 23.4094L29.0328 23.5891L29.0047 31.0265L28.9859 38.4639H27.4379H25.8899V28.2162V17.9591L25.646 17.732L25.402 17.5049H22.4655H19.5291L19.2851 17.732L19.0412 17.9591L19.0224 20.2206L18.9943 22.4726L18.1499 21.5074C17.6902 20.9775 17.268 20.4855 17.2305 20.4193C17.1836 20.3341 17.268 20.1922 17.4838 19.9745C18.1499 19.35 18.4126 18.1672 18.0749 17.344C17.8685 16.8425 17.3056 16.2653 16.8459 16.0761L16.4331 15.9057L17.2493 15.0352C18.1593 14.0795 18.3939 13.6632 18.4595 12.9346C18.5252 12.1681 18.3282 11.6288 17.784 11.061C17.4181 10.6825 17.1836 10.5311 16.799 10.4176C16.1328 10.2189 15.964 10.2283 15.2791 10.4554C14.9695 10.5595 14.6787 10.6258 14.6318 10.5974C14.5848 10.569 14.5192 10.4176 14.491 10.2567C14.4535 10.0864 14.219 9.74577 13.9375 9.4619C13.5716 9.07394 13.3371 8.92255 12.9524 8.809C12.3426 8.62921 12.0987 8.62921 11.5264 8.809ZM12.7179 10.3514C12.9337 10.4838 13.065 10.6731 13.1682 11.0043C13.5153 12.064 14.5192 12.4615 15.5606 11.9694C16.0953 11.7234 16.4049 11.7612 16.752 12.1113C16.9209 12.2817 16.9772 12.4425 16.9772 12.7359C16.9772 13.1238 16.9397 13.1806 15.645 14.4958L14.3128 15.849H12.2394H10.166L8.83382 14.4864C7.68924 13.3131 7.5016 13.086 7.5016 12.8305C7.5016 12.3479 7.73615 11.9883 8.13956 11.8653C8.45854 11.7707 8.55236 11.7896 8.89949 11.9694C9.37796 12.206 10.0816 12.2344 10.4756 12.0262C10.8134 11.8559 11.2168 11.3922 11.3012 11.0989C11.4232 10.6636 11.5921 10.4271 11.8641 10.304C12.2488 10.1337 12.3801 10.1432 12.7179 10.3514ZM16.2548 17.467C16.7614 17.7036 16.874 18.4606 16.4612 18.8674L16.2267 19.1135H12.23H8.23338L8.00822 18.8485C7.67047 18.4511 7.69862 17.9212 8.07389 17.609L8.36473 17.3629H12.1925C14.81 17.3629 16.1047 17.4008 16.2548 17.467ZM24.3888 28.7177V38.4639H23.3005H22.2122L22.4093 38.1516C23.1317 37.054 23.7321 35.4549 23.9103 34.168C24.3231 31.2063 23.4882 28.5663 21.0583 25.1599L20.5423 24.4313V21.7061V18.9715H22.4655H24.3888V28.7177ZM15.9171 21.2425C18.422 23.9771 20.7674 27.147 21.6306 28.9732C22.6907 31.2347 22.7939 33.7517 21.9026 35.8428C20.9832 38.0002 19.5291 39.5426 17.3994 40.6024C15.5418 41.5297 14.0032 41.8325 11.6765 41.7473C10.607 41.7095 10.0534 41.6432 9.36858 41.4635C6.3195 40.6592 4.03972 38.8802 2.81071 36.3349C2.15398 34.9534 2.01326 34.3289 2.02264 32.7392C2.03202 31.7078 2.07893 31.2536 2.22904 30.667C2.78256 28.6136 4.49005 25.9547 7.37026 22.6334C8.09265 21.8008 8.75876 21.0343 8.86196 20.9113L9.0496 20.6842H12.2206L15.3917 20.6747L15.9171 21.2425ZM34.4273 31.6037V38.4639H32.4571H30.487V31.6037V24.7435H32.4571H34.4273V31.6037ZM44.372 34.3005V38.4639H42.4487H40.5255V34.3005V30.1371H42.4487H44.372V34.3005ZM46.9989 40.2617V40.5456H33.658H20.3171L20.5892 40.2617L20.8613 39.9779H33.9301H46.9989V40.2617Z" fill="#EDEDED"/>
<path d="M11.7604 25.0652C11.5634 25.226 11.4883 25.4058 11.4508 25.737C11.3945 26.1628 11.3757 26.1912 10.9723 26.3237C9.00216 26.9955 8.28914 29.3138 9.61197 30.7804C10.006 31.2346 10.7284 31.6036 11.5821 31.8023C13.0926 32.1524 13.5335 32.3228 13.8994 32.6918C14.1996 32.9946 14.2559 33.1081 14.2559 33.4677C14.2559 33.9976 14.0589 34.272 13.4679 34.5464C12.4171 35.0384 10.9067 34.7546 10.3719 33.9597C10.2405 33.761 10.128 33.5434 10.128 33.4866C10.128 33.4299 10.0435 33.269 9.93095 33.1271C9.66826 32.7959 9.18041 32.7864 8.86143 33.1176C8.58936 33.3825 8.5706 33.5434 8.77699 34.149C9.05845 34.9911 10.0248 35.8522 11.0192 36.1455C11.3757 36.2591 11.3945 36.278 11.4508 36.7133C11.4883 37.0445 11.5634 37.2242 11.7604 37.3851C12.0606 37.65 12.2013 37.6595 12.5578 37.4703C12.8674 37.3094 12.9425 37.158 12.9425 36.6565C12.9425 36.3348 12.9706 36.2875 13.2052 36.2307C15.1847 35.8049 16.1886 34.2815 15.6069 32.5688C15.2504 31.5185 14.2841 30.8656 12.4922 30.4682C11.3382 30.2127 11.1412 30.137 10.7659 29.7774C10.0248 29.0867 10.5783 27.9228 11.7698 27.6768C12.8018 27.4591 13.6367 27.8755 14.1809 28.8879C14.4623 29.4178 15.2504 29.3705 15.4756 28.8123C15.6069 28.4905 15.5506 28.2445 15.166 27.6484C14.8095 27.0807 14.1996 26.5981 13.496 26.3426L12.9425 26.1344V25.7181C12.9425 24.9516 12.2952 24.5921 11.7604 25.0652Z" fill="#EDEDED"/>
</svg>
