<svg width="45" height="48" viewBox="0 0 45 48" fill="none" xmlns="http://www.w3.org/2000/svg">
<path d="M21.8285 0.240126C21.4297 0.446198 21.1051 0.998842 21.1051 1.44845C21.1051 1.76692 21.3092 2.23527 21.5874 2.53501L21.7636 2.73171L21.0031 2.79728C18.4992 3.00335 15.6429 3.81827 13.0833 5.05469C6.71221 8.11765 2.27934 13.6254 0.78626 20.3227C0.164916 23.1234 0.0814521 26.561 0.572963 29.2961C0.739891 30.2234 0.971736 30.6449 1.4447 30.8791C2.06604 31.1976 2.7894 31.0009 3.1789 30.4014C3.42929 30.0174 3.44784 29.5771 3.25309 28.3782C2.80795 25.7461 3.04906 22.2803 3.85588 19.5359C5.60863 13.5785 10.4866 8.6703 16.7464 6.57212C18.3879 6.01948 20.5858 5.56987 21.643 5.56987H21.9769L21.6894 5.86961C21.0866 6.51592 20.966 7.07793 21.2906 7.72425C21.5039 8.14575 22.0325 8.47359 22.4962 8.47359C22.6539 8.47359 22.9321 8.38929 23.1268 8.29562C23.5627 8.06145 26.4376 5.13899 26.5674 4.79242C26.7158 4.39901 26.6879 4.01497 26.4932 3.62156C26.2706 3.20005 23.4885 0.399363 23.0804 0.193293C22.6909 -0.00341225 22.2458 0.00595474 21.8285 0.240126Z" fill="#EDEDED"/>
<path d="M30.128 4.82034C29.4046 5.26058 29.2377 6.22536 29.7849 6.88103C29.924 7.04027 30.4526 7.36811 31.0554 7.67722C33.0678 8.66073 34.7741 9.92525 36.4156 11.6206C39.5687 14.899 41.4327 19.011 41.8871 23.6944C42.2395 27.31 41.3956 31.497 39.68 34.6911C39.2534 35.4872 37.9829 37.4543 37.9365 37.3981C37.9272 37.3793 37.8438 37.0328 37.7603 36.6206C37.6768 36.2179 37.547 35.7776 37.4635 35.6558C37.1204 35.1219 36.2487 34.9065 35.6644 35.2156C35.3398 35.3842 35.0338 35.8057 34.9596 36.171C34.9133 36.4333 35.5624 40.283 35.7664 40.9481C35.887 41.3321 36.4063 41.7911 36.7958 41.866C37.2966 41.9597 42.0912 41.3134 42.4528 41.098C42.8702 40.8638 43.204 40.1894 43.1298 39.7585C43.0371 39.2714 42.7496 38.8593 42.3694 38.6813C42.1004 38.5502 41.8871 38.5314 41.3029 38.5689C40.9041 38.6064 40.5795 38.6064 40.5795 38.5877C40.5795 38.5595 40.7836 38.2411 41.0339 37.8664C45.0773 31.7593 45.8749 23.8818 43.1391 17.0159C41.0896 11.8735 37.2966 7.69595 32.4186 5.22311C31.1296 4.56744 30.6659 4.48314 30.128 4.82034Z" fill="#EDEDED"/>
<path d="M13.4634 14.2057C12.805 14.5991 12.5917 15.3578 12.9348 16.0416C13.0739 16.3226 13.584 16.716 15.5407 18.0742L17.9612 19.7603L13.0646 19.8071C8.38138 19.854 8.15881 19.8633 7.85277 20.0413C7.48182 20.2661 7.19434 20.7626 7.19434 21.1841C7.19434 21.4651 12.4804 35.0004 12.9534 35.9371C13.0646 36.1619 13.2687 36.3586 13.5005 36.4804C13.8529 36.6677 14.0291 36.6677 22.4961 36.6677C30.963 36.6677 31.1392 36.6677 31.4916 36.4804C31.7235 36.3586 31.9275 36.1619 32.0388 35.9371C32.4839 35.0566 37.7978 21.4651 37.7978 21.2122C37.7978 20.8281 37.4918 20.2474 37.1765 20.0319C36.9354 19.8633 36.6386 19.854 31.9739 19.8071L27.031 19.7603L29.4607 18.0742C32.0203 16.2945 32.2335 16.0884 32.2335 15.4046C32.2335 14.9269 31.909 14.4024 31.4731 14.1776C30.7126 13.7841 30.7219 13.7841 26.456 16.7535C24.3416 18.2241 22.561 19.4324 22.5054 19.4324C22.4404 19.4324 20.6599 18.2241 18.5362 16.7441C15.0585 14.3274 14.6319 14.0558 14.2517 14.0277C13.9271 13.9996 13.7324 14.0464 13.4634 14.2057ZM32.1223 28.2374L29.8966 33.8576H22.4961H15.0956L12.8699 28.2374L10.6442 22.6172H22.4961H34.348L32.1223 28.2374Z" fill="#EDEDED"/>
<path d="M16.1339 25.5959C15.7629 25.8301 15.4754 26.2048 15.4013 26.5514C15.3456 26.8043 15.7908 29.3522 16.0133 30.0828C16.2081 30.7105 17.0056 31.1507 17.6641 31.0008C18.0999 30.9072 18.5729 30.4107 18.6564 29.9704C18.7213 29.5957 18.3689 27.4694 18.0721 26.439C17.831 25.6053 16.8109 25.165 16.1339 25.5959Z" fill="#EDEDED"/>
<path d="M21.8288 25.6239C21.1982 25.9517 21.1055 26.2889 21.1055 28.2373C21.1055 29.7453 21.124 29.9702 21.2909 30.298C21.5042 30.7195 22.0329 31.0474 22.4965 31.0474C22.9602 31.0474 23.4888 30.7195 23.7021 30.298C23.8691 29.9702 23.8876 29.7453 23.8876 28.2373C23.8876 26.7292 23.8691 26.5044 23.7021 26.1765C23.359 25.4927 22.5244 25.2492 21.8288 25.6239Z" fill="#EDEDED"/>
<path d="M27.5967 25.6054C27.0681 25.8864 26.9568 26.13 26.623 27.8067C26.2613 29.5583 26.2428 29.7925 26.4282 30.2421C26.7157 30.9446 27.8008 31.2537 28.3943 30.8041C28.8765 30.4482 28.9785 30.1859 29.3124 28.5186C29.6741 26.7294 29.6741 26.4391 29.2938 25.9895C28.8209 25.4181 28.1995 25.2776 27.5967 25.6054Z" fill="#EDEDED"/>
<path d="M3.60549 34.4286C3.08616 34.6909 2.9656 34.9719 2.32571 37.4073C1.75073 39.5992 1.74146 39.824 2.15878 40.3204C2.62247 40.8731 3.20672 41.023 3.81879 40.7326C4.21756 40.5452 4.4494 40.2174 4.62561 39.6179C4.6998 39.3556 4.78326 39.1589 4.82036 39.1683C4.84818 39.187 5.19131 39.5711 5.57153 40.0301C8.47423 43.5239 12.6474 46.1654 17.0617 47.2988C19.0742 47.814 20.2334 47.9545 22.5426 47.9451C24.7126 47.9451 25.8255 47.8234 27.6431 47.3925C29.5906 46.9335 32.2986 45.8563 32.7994 45.3599C33.4856 44.6573 33.263 43.5239 32.3635 43.1118C31.8442 42.887 31.7329 42.9057 30.2305 43.5614C28.8116 44.1796 27.2258 44.6573 25.6493 44.929C24.1191 45.2006 20.9938 45.2193 19.5749 44.9758C15.6614 44.2827 12.4434 42.7277 9.46652 40.0675C8.80808 39.4868 7.36137 37.9038 7.1759 37.5666C7.12025 37.4729 7.24081 37.4542 7.77869 37.4823C8.36294 37.5197 8.4835 37.501 8.77099 37.3043C9.4016 36.8734 9.60563 36.0304 9.20685 35.4496C8.80808 34.8502 8.68752 34.8127 6.45254 34.5129C5.30259 34.3631 4.28248 34.2319 4.18046 34.2319C4.07845 34.2319 3.81879 34.3162 3.60549 34.4286Z" fill="#EDEDED"/>
</svg>
