<svg width="53" height="48" viewBox="0 0 53 48" fill="none" xmlns="http://www.w3.org/2000/svg">
<path d="M45.5118 0.151672C45.1199 0.348812 38.7792 6.44133 38.4677 6.92009C38.2467 7.23927 38.2366 7.36131 38.2366 9.01352C38.2366 9.98982 38.2165 10.7784 38.1864 10.7784C38.1562 10.7784 37.8548 10.5625 37.5131 10.2996C36.5384 9.56738 34.9809 8.62863 33.7549 8.0466C24.9523 3.86914 14.2404 5.45564 7.32698 11.9518C3.93053 15.1436 1.74998 19.2272 0.986279 23.8271C0.745112 25.3291 0.745112 28.5302 0.996328 29.9759C1.81027 34.7072 3.91044 38.6031 7.38727 41.8512C10.8741 45.1086 15.1348 47.1082 20.1491 47.831C21.7468 48.0563 25.0829 48.0563 26.6807 47.831C29.1828 47.4649 31.1624 46.8923 33.363 45.8972C40.1358 42.8087 44.6879 36.9602 45.8334 29.8726C46.0444 28.5208 46.0746 25.6201 45.8937 24.2964C45.331 20.3724 43.6227 16.5423 41.1608 13.7073C40.8794 13.3881 40.6483 13.1065 40.6483 13.0783C40.6483 13.0502 41.4823 13.0314 42.5073 13.0314C44.0246 13.0314 44.4366 13.0032 44.6979 12.8812C45.14 12.6747 51.7721 6.49765 52.0133 6.06583C52.2545 5.61522 52.2545 5.23034 52.0033 4.77034C51.6516 4.1226 51.2898 4.01934 49.3404 4.01934H47.6824V2.56427C47.6824 1.28757 47.6522 1.05288 47.4814 0.7337C47.1196 0.0765724 46.1951 -0.195667 45.5118 0.151672ZM44.8989 6.15031C45.14 6.57275 45.7329 6.83561 46.4464 6.83561H47.0292L45.2204 8.52536L43.4117 10.2151H42.3365H41.2512V9.18249V8.14986L42.9394 6.54459L44.6175 4.92994L44.6678 5.38992C44.6979 5.64339 44.8084 5.99073 44.8989 6.15031ZM25.3743 8.61924C28.2081 8.89148 31.0719 9.77391 33.4434 11.0882C34.3176 11.5763 36.1264 12.8061 36.1264 12.9187C36.1264 12.9563 35.6541 13.4257 35.0813 13.9608L34.0363 14.9371L33.5941 14.6085C32.8706 14.0546 31.6045 13.3224 30.6499 12.8906C27.3338 11.4073 23.5354 10.9943 19.8677 11.7171C11.5776 13.3506 5.96036 20.6447 6.89488 28.5959C7.94999 37.73 17.1646 43.9446 26.8816 42.0765C28.9316 41.6822 31.3734 40.6777 33.1118 39.523C34.2775 38.7533 35.9757 37.1855 36.7796 36.1435C38.4175 34.0219 39.4023 31.7783 39.8545 29.131C40.0253 28.1735 40.0253 25.6013 39.8545 24.625C39.3922 21.8745 38.2165 19.3023 36.5484 17.3684L36.1967 16.9554L37.2418 15.9791C37.8146 15.444 38.317 15.0028 38.3572 15.0028C38.3873 15.0028 38.7591 15.4158 39.1611 15.9134C42.0652 19.5276 43.4519 24.2213 42.9595 28.7086C41.8139 38.9692 32.0667 46.2821 21.1037 45.0899C17.3857 44.6862 13.7983 43.2687 10.9545 41.1002C10.01 40.3773 8.36199 38.772 7.67868 37.9084C1.77007 30.4453 2.6644 20.0533 9.7688 13.6791C13.9792 9.91472 19.6667 8.06538 25.3743 8.61924ZM26.1581 14.4395C27.9267 14.7681 29.7053 15.4815 31.1825 16.4391L31.916 16.9084L30.8408 17.9223L29.7656 18.9362L29.3335 18.6545C28.5698 18.1664 27.0625 17.5468 26.0275 17.2933C25.1432 17.068 24.8317 17.0399 23.4149 17.0399C22.0181 17.0399 21.6865 17.068 20.8424 17.2746C18.8528 17.7721 17.2349 18.6264 15.8784 19.9218C14.5017 21.2173 13.6174 22.6912 13.1049 24.5311C12.904 25.254 12.8738 25.5919 12.8738 26.925C12.8738 28.2862 12.914 28.5866 13.1351 29.3751C13.6476 31.1494 14.5419 32.6044 15.9186 33.8811C17.2852 35.1672 18.8427 36.0027 20.7419 36.4815C21.586 36.688 21.9076 36.7256 23.3646 36.7256C24.7915 36.7256 25.1533 36.6974 25.927 36.5096C27.8966 36.0309 29.4742 35.2048 30.8609 33.9187C32.2476 32.6514 33.1621 31.14 33.6946 29.2812C33.9157 28.4927 33.9458 28.1829 33.9458 26.878C33.9458 25.5544 33.9157 25.2634 33.6745 24.4373C33.4032 23.4703 32.74 22.0622 32.2175 21.3488L31.916 20.9451L33.0013 19.9406L34.0865 18.9362L34.589 19.6214C35.6541 21.0484 36.458 22.8789 36.7997 24.6156C37.0509 25.8923 37.0308 28.1829 36.7394 29.4408C36.1867 31.8722 35.0713 33.8717 33.2726 35.6366C31.2629 37.5986 28.9517 38.7814 25.9672 39.3822C24.8217 39.6075 22.0583 39.6075 20.8525 39.3822C14.0897 38.1243 9.47739 32.6044 9.83914 26.2209C10.01 23.1324 11.266 20.3537 13.4667 18.2039C15.7477 15.9697 18.5714 14.6273 21.7568 14.2518C22.8823 14.1297 24.9825 14.2142 26.1581 14.4395ZM25.4547 20.072C25.8567 20.1753 26.5098 20.4194 26.9017 20.5977L27.6152 20.9357L26.5098 21.9683L25.3944 23.0103L24.9121 22.8508C22.4703 22.0716 19.7471 23.4328 19.104 25.7515C18.3503 28.4176 20.5209 31.0555 23.4651 31.0555C25.5552 31.0555 27.3037 29.7412 27.8463 27.7604C28.0372 27.0658 27.987 26.1927 27.7257 25.4793L27.5549 25.0287L28.6703 23.9867L29.7757 22.954L30.1374 23.6205C31.1423 25.4793 31.2428 27.7135 30.4188 29.6098C29.5043 31.7126 27.4042 33.3085 24.9121 33.7966C23.1837 34.1252 21.5659 33.9375 19.9983 33.2146C18.0991 32.3416 16.6119 30.6424 16.0593 28.7086C15.8181 27.8731 15.8181 25.9862 16.0693 25.1413C16.7124 22.9071 18.4207 21.0765 20.6414 20.2692C21.988 19.7716 23.9977 19.6872 25.4547 20.072ZM23.9977 25.5544C24.7915 25.8548 25.1332 26.6433 24.8116 27.3849C24.2087 28.7274 22.1186 28.3988 21.988 26.9343C21.9277 26.3429 22.1889 25.9111 22.7617 25.6295C23.2742 25.3948 23.5455 25.376 23.9977 25.5544Z" fill="#EDEDED"/>
</svg>
