<svg width="45" height="44" viewBox="0 0 45 44" fill="none" xmlns="http://www.w3.org/2000/svg">
<g clip-path="url(#clip0_63_771)">
<path d="M26.6715 0.484341C25.6285 0.703712 25.8284 0.526527 17.589 8.5084L9.85363 16.0009L6.63781 16.0262C3.56105 16.0515 3.39592 16.0684 2.90051 16.2456C1.7967 16.6422 0.93625 17.4606 0.492988 18.5237L0.293086 19.0047L0.267012 29.5093C0.249629 37.044 0.267012 40.1575 0.336543 40.5118C0.632051 41.9884 1.85754 43.2034 3.36115 43.5071C4.01301 43.6421 40.9862 43.6421 41.6381 43.5071C43.1156 43.2034 44.3411 42.0053 44.654 40.5793C44.7235 40.2671 44.7496 37.0356 44.7496 29.7793C44.7496 21.0043 44.7322 19.3506 44.6279 18.954C44.515 18.5406 44.515 18.4225 44.6193 18.0259C44.8626 17.1653 44.7496 16.2625 44.2977 15.3765C44.0717 14.9378 43.1069 13.9675 37.0751 8.08652C33.2422 4.35715 29.9047 1.18465 29.67 1.03278C29.4267 0.880901 29.0356 0.695278 28.8009 0.610901C28.2794 0.44215 27.2104 0.374653 26.6715 0.484341ZM28.0969 3.09996C28.3229 3.20121 29.5049 4.28965 31.3649 6.09528L34.2765 8.92184L30.6261 12.4656L26.9757 16.0093H20.2399H13.504L20.1095 9.59684C23.7425 6.06997 26.8279 3.13371 26.9757 3.05778C27.332 2.88903 27.6797 2.89746 28.0969 3.09996ZM37.0317 11.5965C37.501 12.0522 37.8834 12.4572 37.8834 12.5078C37.8834 12.55 37.0925 13.36 36.1277 14.2965L34.3634 16.0093H32.5382H30.713L33.4073 13.3937C34.8849 11.9509 36.1191 10.7781 36.1451 10.7781C36.1625 10.7781 36.571 11.1493 37.0317 11.5965ZM40.7516 15.2162L41.6642 16.1106L41.1861 16.06C40.9254 16.0347 40.0997 16.0093 39.361 16.0093H38.0138L38.8829 15.1656C39.361 14.7015 39.7694 14.3218 39.7955 14.3218C39.8216 14.3218 40.2562 14.7268 40.7516 15.2162ZM41.499 18.76C41.6294 18.8528 41.8206 19.0384 41.9162 19.165C42.0987 19.3928 42.0987 19.4434 42.1248 29.7371L42.1422 40.0731L41.951 40.4106C41.8293 40.6131 41.6207 40.8156 41.4295 40.9084C41.1166 41.0603 40.5951 41.0687 22.4909 41.0687H3.88264L3.53498 40.8831C3.32639 40.765 3.11779 40.5625 3.02219 40.3768C2.86574 40.0731 2.85705 39.7103 2.85705 29.8468C2.85705 21.384 2.87443 19.5868 2.97873 19.359C3.12648 19.0215 3.45676 18.7262 3.77834 18.625C3.9174 18.5828 12.3394 18.5575 22.6474 18.5659L41.2644 18.5828L41.499 18.76Z" fill="#EDEDED"/>
<path d="M6.95925 22.076C6.38561 22.27 5.88151 22.7341 5.63815 23.2825C5.46432 23.6791 5.45563 23.8141 5.48171 25.8644C5.50778 27.9147 5.51647 28.0497 5.69899 28.3788C5.94235 28.826 6.48991 29.2816 6.93317 29.4081C7.15046 29.4756 8.15866 29.5094 9.94909 29.5094C12.3653 29.5094 12.6695 29.4925 12.9824 29.3491C13.4257 29.155 14.034 28.4885 14.1557 28.0835C14.1992 27.9147 14.2426 26.8347 14.2426 25.6872C14.2426 23.4513 14.2166 23.2825 13.7733 22.7172C13.6603 22.5738 13.3561 22.346 13.1041 22.211L12.6347 21.9578L10.0273 21.9325C7.66325 21.9156 7.37643 21.9325 6.95925 22.076ZM11.6352 25.7125V26.9781H9.85348H8.07175V25.7125V24.4469H9.85348H11.6352V25.7125Z" fill="#EDEDED"/>
<path d="M5.37793 36.0062V37.2719H8.41992H11.4619V36.0062V34.7406H8.41992H5.37793V36.0062Z" fill="#EDEDED"/>
<path d="M14.7646 36.0062V37.2719H17.8066H20.8486V36.0062V34.7406H17.8066H14.7646V36.0062Z" fill="#EDEDED"/>
<path d="M24.1514 36.0062V37.2719H27.1934H30.2354V36.0062V34.7406H27.1934H24.1514V36.0062Z" fill="#EDEDED"/>
<path d="M33.5381 36.0062V37.2719H36.5801H39.6221V36.0062V34.7406H36.5801H33.5381V36.0062Z" fill="#EDEDED"/>
</g>
<defs>
<clipPath id="clip0_63_771">
<rect width="44.5" height="43.2" fill="white" transform="translate(0.25 0.400024)"/>
</clipPath>
</defs>
</svg>
