<svg width="48" height="48" viewBox="0 0 48 48" fill="none" xmlns="http://www.w3.org/2000/svg">
<path d="M22.1695 0.0487545C17.782 0.461255 14.0789 1.73625 10.732 3.97688C7.12266 6.38625 4.33828 9.56438 2.42578 13.4363C1.24453 15.855 0.522656 18.2269 0.119531 21.03C-0.0398438 22.1363 -0.0398438 25.83 0.119531 26.9363C0.513281 29.7019 1.24453 32.1206 2.38828 34.4363C3.67266 37.0613 4.93828 38.8238 7.01953 40.9144C9.09141 42.9769 10.882 44.2613 13.4039 45.4988C15.1664 46.3613 16.3008 46.7831 18.0914 47.2331C19.9289 47.6925 21.307 47.8894 23.2008 47.955C28.6383 48.1425 33.9164 46.4738 38.3414 43.1644C39.6352 42.1988 41.8945 39.9863 42.8133 38.7956C47.4633 32.7581 49.0289 25.3519 47.2008 18.0769C46.6477 15.8738 45.4945 13.155 44.332 11.3269C42.3539 8.205 39.2977 5.205 36.307 3.42375C32.4352 1.1175 28.1414 -0.0543705 23.7633 0.0018795C23.0695 0.0018795 22.3477 0.0300045 22.1695 0.0487545ZM25.9758 2.33625C32.3227 2.955 37.9758 6.23625 41.7352 11.4956C44.6602 15.5925 46.0945 20.9644 45.5977 26.0081C45.1195 30.9675 43.0383 35.4769 39.5789 39.0488C37.957 40.7269 36.4758 41.8706 34.5445 42.9581C28.0195 46.6144 20.1352 46.6519 13.5445 43.0519C11.6039 41.9925 10.3289 41.0363 8.61328 39.3206C6.46641 37.1644 5.06953 35.13 3.95391 32.4956C1.61953 27.0394 1.63828 20.8613 3.99141 15.3863C5.12578 12.7331 6.68203 10.5019 8.84766 8.40188C11.932 5.40188 15.5789 3.48 19.732 2.66438C21.8789 2.2425 23.932 2.13 25.9758 2.33625Z" fill="url(#paint0_linear_184_437)"/>
<path d="M11.5288 14.3644C10.9382 14.6363 10.3476 15.2738 10.1132 15.8832C9.94443 16.3238 9.93506 16.6894 9.93506 24.03V31.7175L10.1601 32.205C10.4319 32.8144 11.1069 33.4613 11.7163 33.6957C12.1663 33.8644 12.5788 33.8738 23.9507 33.8738C35.3226 33.8738 35.7351 33.8644 36.1851 33.6957C36.7944 33.4613 37.4694 32.8144 37.7413 32.205L37.9663 31.7175V24.03C37.9663 16.6894 37.9569 16.3238 37.7882 15.8832C37.5538 15.2738 36.9632 14.6363 36.3726 14.3644L35.9038 14.1394H23.9507H11.9976L11.5288 14.3644ZM33.3632 16.4738C32.9976 16.8207 24.0257 23.8894 23.9601 23.8894C23.8944 23.8894 14.9132 16.8207 14.5382 16.4738C14.4819 16.4269 18.5038 16.3894 23.9507 16.3894C29.4257 16.3894 33.4194 16.4269 33.3632 16.4738ZM20.0601 23.73C21.9163 25.2113 23.5476 26.4394 23.6976 26.4769C23.8382 26.505 24.0726 26.505 24.2132 26.4675C24.3538 26.4394 26.9132 24.4707 30.0444 21.9863L35.6226 17.5519L35.6507 24.4425C35.6694 30.5457 35.6507 31.3519 35.5288 31.4832C35.3976 31.605 34.1132 31.6238 24.0632 31.6425C15.0632 31.6613 12.7007 31.6425 12.5132 31.5488L12.2788 31.4269L12.2507 24.4707L12.2319 17.5144L14.4538 19.2863C15.6819 20.2613 18.2038 22.2582 20.0601 23.73Z" fill="url(#paint1_linear_184_437)"/>
<defs>
<linearGradient id="paint0_linear_184_437" x1="49.4507" y1="61.9829" x2="13.4507" y2="3.48291" gradientUnits="userSpaceOnUse">
<stop stop-color="#F2994A"/>
<stop offset="1" stop-color="#F2C94C"/>
</linearGradient>
<linearGradient id="paint1_linear_184_437" x1="23.9507" y1="33.8738" x2="23.9507" y2="14.1394" gradientUnits="userSpaceOnUse">
<stop stop-color="#F2994A"/>
<stop offset="1" stop-color="#F2C94C"/>
</linearGradient>
</defs>
</svg>
