<svg width="49" height="48" viewBox="0 0 49 48" fill="none" xmlns="http://www.w3.org/2000/svg">
<path d="M6.96875 1.21877V2.4469L7.74688 2.41877L8.51563 2.39065L8.54375 1.19065L8.57188 2.43187e-05H7.76563H6.96875V1.21877Z" fill="#EDEDED"/>
<path d="M21.2187 0.0562553C18.6031 0.562504 16.5406 2.925 16.5312 5.40938C16.5312 7.06876 15.6687 8.49376 14.2437 9.1875C13.0437 9.77813 11.3937 9.66563 10.3062 8.90625C9.62187 8.4375 9.05 7.72501 8.77812 7.0125C8.69375 6.78751 8.6 6.20625 8.57187 5.71875L8.51562 4.82813L7.74687 4.8L6.96875 4.77188V5.66251C6.96875 8.175 8.69375 10.3875 11.1406 11.0156C11.8437 11.1938 13.2312 11.1938 13.9062 11.0156C16.25 10.3969 17.9281 8.3625 18.0875 5.98125C18.1906 4.45313 18.4719 3.68438 19.2594 2.85938C20.9469 1.06876 23.8531 1.24688 25.3156 3.21563C25.7375 3.79688 26.0937 4.75313 26.0937 5.30626V5.625H24.3594C22.6344 5.625 22.6156 5.625 22.3906 5.85938L22.1562 6.08438V8.14688V10.2094L21.7625 10.3125C20.4312 10.65 18.5375 11.4563 17.1594 12.2813C9.74375 16.6969 6.1625 25.4438 8.38437 33.75C9.06875 36.3094 10.3437 38.8125 12.0031 40.875C12.6781 41.7094 14.3844 43.3781 15.1719 43.9781C19.9719 47.6438 26.1031 48.8719 31.8969 47.3344C37.5219 45.8438 42.2281 41.7656 44.5437 36.3844C46.7656 31.2281 46.6156 25.4156 44.15 20.3906C43.1375 18.3094 41.975 16.7063 40.3156 15.075C38.2531 13.0406 35.7406 11.5125 32.9187 10.5844L31.7187 10.1813V8.14688C31.7187 5.45625 31.9156 5.69063 29.5437 5.625L27.7344 5.57813L27.6687 4.96875C27.3594 2.21251 25.1187 0.140629 22.3437 0.0468788C21.8562 0.0281296 21.35 0.0375061 21.2187 0.0562553ZM30.125 9.17813C30.125 11.0906 30.125 11.1375 30.3406 11.3625C30.4625 11.4938 30.725 11.625 30.9312 11.6625C31.1281 11.7 31.7656 11.8875 32.3281 12.0656C38.0375 13.8938 42.4156 18.5438 43.9531 24.4031C44.4781 26.4094 44.6375 29.2781 44.3281 31.3031C43.4469 37.1719 39.8656 42.0656 34.5781 44.625C28.4 47.625 20.9562 46.725 15.6875 42.3281C9.11562 36.8531 7.41875 27.4688 11.6562 20.0531C13.9812 15.9938 17.7031 13.1344 22.3812 11.8125C23.7594 11.4188 23.6937 11.5406 23.7312 9.1875L23.7594 7.21875H26.9469H30.125V9.17813Z" fill="#EDEDED"/>
<path d="M26.1597 20.0344C26.1222 20.0625 26.0941 20.4281 26.0941 20.8312V21.5625H25.3722C23.6847 21.5719 22.6159 21.9375 21.7534 22.8C19.5128 25.0406 20.6847 28.8562 23.8253 29.5219C24.1253 29.5875 25.4097 29.625 27.0597 29.625C29.7316 29.625 29.8066 29.6344 30.2659 29.85C31.1378 30.2531 31.6253 31.0219 31.6253 32.0062C31.6253 32.7188 31.3066 33.4219 30.8003 33.8437C30.1534 34.3781 29.9003 34.4062 25.8409 34.4062H22.1566V35.2031V36H24.1253H26.0941V36.7969V37.5938H26.8909H27.6878V36.7969V36H28.7003C30.2659 36 31.0816 35.7281 31.9816 34.9219C33.2003 33.825 33.5941 31.8187 32.8816 30.3094C32.5909 29.7 31.9441 28.9688 31.4003 28.6219C30.5941 28.1062 30.4909 28.0875 27.1253 28.0312C24.0691 27.9844 23.9753 27.975 23.5347 27.7594C22.9628 27.4781 22.4753 26.8969 22.2972 26.3062C22.1191 25.725 22.1191 25.4625 22.2972 24.8812C22.4847 24.2531 22.8972 23.7844 23.5441 23.4656L24.0784 23.2031L27.9034 23.175L31.7191 23.1469V22.35V21.5625H29.7034H27.6878V20.7656V19.9688H26.9566C26.5534 19.9688 26.1878 19.9969 26.1597 20.0344Z" fill="#EDEDED"/>
<path d="M3.70625 0.778125C3.43437 1.05 3.21875 1.3125 3.21875 1.36875C3.21875 1.49062 4.64375 2.90625 4.775 2.90625C4.82187 2.90625 5.09375 2.67187 5.375 2.39062L5.88125 1.875L5.09375 1.07812C4.65312 0.6375 4.27812 0.28125 4.25 0.28125C4.22187 0.28125 3.97812 0.50625 3.70625 0.778125Z" fill="#EDEDED"/>
<path d="M10.3625 1.05935L9.59375 1.83748L10.1562 2.3906L10.7188 2.94373L11.4688 2.2031C11.8813 1.7906 12.2188 1.4156 12.2188 1.35935C12.2188 1.2656 11.2719 0.281226 11.1781 0.281226C11.1594 0.281226 10.7938 0.628101 10.3625 1.05935Z" fill="#EDEDED"/>
<path d="M2.9375 4.82812V5.625H4.10938H5.28125V4.82812V4.03125H4.10938H2.9375V4.82812Z" fill="#EDEDED"/>
<path d="M10.1562 4.82812V5.625H11.3281H12.5V4.82812V4.03125H11.3281H10.1562V4.82812Z" fill="#EDEDED"/>
<path d="M3.96875 7.45312L3.17188 8.25L3.73438 8.8125L4.29688 9.375L5.09375 8.57812L5.89062 7.78125L5.32812 7.21875L4.76563 6.65625L3.96875 7.45312Z" fill="#EDEDED"/>
</svg>
