<svg width="51" height="48" viewBox="0 0 51 48" fill="none" xmlns="http://www.w3.org/2000/svg">
<g clip-path="url(#clip0_45_650)">
<path d="M9.70964 0.103138C8.43764 0.337513 7.1557 1.27501 6.61907 2.36251C6.25139 3.11251 6.1222 3.73126 6.1222 4.83751V5.71876H5.18807C4.68126 5.71876 4.02539 5.76564 3.72726 5.81251C1.87889 6.14064 0.447886 7.53751 0.139823 9.31876C-0.168239 11.0531 0.885136 12.9469 2.56457 13.6875C3.35957 14.0344 4.01545 14.1563 5.18807 14.1563H6.1222V16.9688V19.7813H5.18807C3.44901 19.7813 2.34595 20.1469 1.39195 21.0375C-0.337177 22.6688 -0.337177 25.3313 1.39195 26.9625C2.34595 27.8531 3.44901 28.2188 5.18807 28.2188H6.1222V31.0313V33.8438H5.18807C4.68126 33.8438 4.02539 33.8906 3.72726 33.9375C1.87889 34.2656 0.447886 35.6625 0.139823 37.4438C-0.168239 39.1781 0.885136 41.0719 2.56457 41.8125C3.35957 42.1594 4.01545 42.2813 5.17814 42.2813H6.09239L6.15201 43.4344C6.21164 44.7094 6.31101 45.0844 6.79795 45.8719C7.44389 46.9219 8.5867 47.7 9.80901 47.9063C10.1767 47.9719 15.7417 47.9906 26.2059 47.9813L42.0463 47.9531L43.04 47.7C46.4983 46.8094 49.2311 44.4 50.3739 41.2406C50.9999 39.525 51.0894 37.4719 50.6124 35.7094C50.1751 34.1344 49.5988 33.0563 48.4957 31.7719L47.9591 31.1531V17.5594C47.9591 8.70001 47.9193 3.78751 47.8597 3.45938C47.5218 1.77189 46.0809 0.412514 44.2921 0.0937614C43.6263 -0.0187378 10.3556 -0.0187378 9.70964 0.103138ZM44.1828 3.00001C44.4412 3.12189 44.6499 3.31876 44.7791 3.56251C44.9778 3.92813 44.9778 4.08751 44.9778 16.5563C44.9778 28.5375 44.9679 29.175 44.8089 29.1C44.7095 29.0625 44.2524 28.9031 43.7853 28.7531C38.2601 26.9344 32.1386 29.9906 30.4889 35.3906C29.5051 38.6063 30.3598 42.1313 32.7348 44.6531L33.1919 45.1406L21.9129 45.1688C15.7119 45.1781 10.5046 45.1688 10.3258 45.1406C9.91832 45.075 9.41151 44.6719 9.24257 44.2781C9.15314 44.0906 9.10345 43.6125 9.10345 43.0125V42.0469L9.74939 41.7281C10.9021 41.1656 11.7667 40.0125 12.0052 38.7188C12.3133 37.0125 11.3593 35.175 9.74939 34.3969L9.10345 34.0781V31.0313V27.9844L9.74939 27.6656C11.3593 26.8875 12.3133 25.05 12.0052 23.3438C11.7667 22.05 10.9021 20.8969 9.74939 20.3344L9.10345 20.0156V16.9688V13.9219L9.74939 13.6031C10.9021 13.0406 11.7667 11.8875 12.0052 10.5938C12.3133 8.88751 11.3593 7.05001 9.74939 6.27188L9.10345 5.95314V4.94064C9.10345 3.74063 9.27239 3.30001 9.87857 3.00939C10.2363 2.82189 10.5146 2.82189 27.0208 2.81251C43.6363 2.81251 43.7953 2.81251 44.1828 3.00001ZM8.30845 8.71876C8.75564 8.93439 9.10345 9.46876 9.10345 9.93751C9.10345 10.4063 8.75564 10.9406 8.30845 11.1563C7.96064 11.325 7.72214 11.3438 6.07251 11.3438C3.92601 11.3438 3.59807 11.2594 3.24032 10.5938C2.99189 10.125 2.99189 9.75001 3.24032 9.28126C3.59807 8.61563 3.8962 8.54064 6.05264 8.53126C7.73207 8.53126 7.96064 8.55001 8.30845 8.71876ZM8.30845 22.7813C8.75564 22.9969 9.10345 23.5313 9.10345 24C9.10345 24.4688 8.75564 25.0031 8.30845 25.2188C7.96064 25.3875 7.72214 25.4063 6.07251 25.4063C3.92601 25.4063 3.59807 25.3219 3.24032 24.6563C2.99189 24.1875 2.99189 23.8125 3.24032 23.3438C3.59807 22.6781 3.8962 22.6031 6.05264 22.5938C7.73207 22.5938 7.96064 22.6125 8.30845 22.7813ZM42.3444 31.2469C44.9679 31.9313 47.015 33.8625 47.7305 36.3281C47.969 37.1531 48.0088 38.4844 47.82 39.375C47.2436 42.0281 45.3753 44.0156 42.6425 44.8781C41.937 45.0938 41.6984 45.1219 40.5059 45.1219C39.3134 45.1219 39.0749 45.0938 38.3694 44.8781C34.0764 43.5281 31.9299 39.1781 33.6491 35.3438C34.5534 33.3375 36.68 31.6406 38.8166 31.2281C39.1147 31.1719 39.4526 31.1063 39.5619 31.0875C39.9296 31.0031 41.8376 31.1156 42.3444 31.2469ZM8.30845 36.8438C8.75564 37.0594 9.10345 37.5938 9.10345 38.0625C9.10345 38.5313 8.75564 39.0656 8.30845 39.2813C7.96064 39.45 7.72214 39.4688 6.07251 39.4688C3.92601 39.4688 3.59807 39.3844 3.24032 38.7188C2.99189 38.25 2.99189 37.875 3.24032 37.4063C3.59807 36.7406 3.8962 36.6656 6.05264 36.6563C7.73207 36.6563 7.96064 36.675 8.30845 36.8438Z" fill="#EDEDED"/>
<path d="M24.8046 8.72817C24.6158 8.8313 23.3538 9.96567 22.0023 11.2313L19.5378 13.5375L18.2658 12.3563C17.5701 11.7 16.8745 11.1188 16.7255 11.0719C15.4733 10.6219 14.3007 11.7282 14.7777 12.9094C14.9069 13.2375 18.1465 16.3407 18.7328 16.6969C19.3191 17.0532 19.7564 17.0532 20.3427 16.6969C20.9091 16.35 26.6232 10.9219 26.8319 10.5282C27.1698 9.89067 26.8915 9.0938 26.1959 8.72817C25.7189 8.47505 25.2518 8.47505 24.8046 8.72817Z" fill="#EDEDED"/>
<path d="M30.8469 11.5406C30.4196 11.7469 30.0718 12.3 30.0718 12.75C30.0718 13.2187 30.4196 13.7531 30.8668 13.9688C31.2444 14.1469 31.4432 14.1562 36.0343 14.1562C40.6254 14.1562 40.8242 14.1469 41.2018 13.9688C41.649 13.7531 41.9968 13.2187 41.9968 12.75C41.9968 12.2812 41.649 11.7469 41.2018 11.5312C40.8242 11.3531 40.6353 11.3438 36.0144 11.3438C31.4332 11.3531 31.1947 11.3625 30.8469 11.5406Z" fill="#EDEDED"/>
<path d="M24.8046 19.9782C24.6158 20.0813 23.3538 21.2157 22.0023 22.4813L19.5378 24.7875L18.2658 23.6063C17.5701 22.95 16.8745 22.3688 16.7255 22.3219C15.4733 21.8719 14.3007 22.9782 14.7777 24.1594C14.9069 24.4875 18.1465 27.5907 18.7328 27.9469C19.3191 28.3032 19.7564 28.3032 20.3427 27.9469C20.9091 27.6 26.6232 22.1719 26.8319 21.7782C27.1698 21.1407 26.8915 20.3438 26.1959 19.9782C25.7189 19.725 25.2518 19.725 24.8046 19.9782Z" fill="#EDEDED"/>
<path d="M30.8469 22.7906C30.4196 22.9969 30.0718 23.55 30.0718 24C30.0718 24.4687 30.4196 25.0031 30.8668 25.2187C31.2444 25.3969 31.4432 25.4062 36.0343 25.4062C40.6254 25.4062 40.8242 25.3969 41.2018 25.2187C41.649 25.0031 41.9968 24.4687 41.9968 24C41.9968 23.5312 41.649 22.9969 41.2018 22.7812C40.8242 22.6031 40.6353 22.5937 36.0144 22.5937C31.4332 22.6031 31.1947 22.6125 30.8469 22.7906Z" fill="#EDEDED"/>
<path d="M24.8046 31.2282C24.6158 31.3313 23.3538 32.4657 22.0023 33.7313L19.5378 36.0375L18.2658 34.8563C17.5701 34.2 16.8745 33.6188 16.7255 33.5719C15.4733 33.1219 14.3007 34.2282 14.7777 35.4094C14.9069 35.7375 18.1465 38.8407 18.7328 39.1969C19.3191 39.5532 19.7564 39.5532 20.3427 39.1969C20.9091 38.85 26.6232 33.4219 26.8319 33.0282C27.1698 32.3907 26.8915 31.5938 26.1959 31.2282C25.7189 30.975 25.2518 30.975 24.8046 31.2282Z" fill="#EDEDED"/>
<path d="M39.7903 34.0406C39.1145 34.3687 39.0151 34.7062 39.0151 36.6562C39.0151 38.625 39.1145 38.9437 39.8101 39.2812C40.1579 39.45 40.3964 39.4688 41.9964 39.4688C43.5963 39.4688 43.8348 39.45 44.1826 39.2812C44.6298 39.0656 44.9776 38.5312 44.9776 38.0625C44.9776 37.5937 44.6298 37.0594 44.1826 36.8437C43.8746 36.6937 43.5963 36.6562 42.8908 36.6562H41.9964V35.8125C41.9964 34.7625 41.7976 34.3219 41.2014 34.0312C40.7144 33.7969 40.2673 33.7969 39.7903 34.0406Z" fill="#EDEDED"/>
</g>
<defs>
<clipPath id="clip0_45_650">
<rect width="50.88" height="48" fill="white" transform="translate(0.0605469)"/>
</clipPath>
</defs>
</svg>
