<svg width="43" height="43" viewBox="0 0 43 43" fill="none" xmlns="http://www.w3.org/2000/svg">
<path fill-rule="evenodd" clip-rule="evenodd" d="M36.2687 6.571C32.3307 2.62851 27.0938 0.456388 21.5142 0.454102C10.0178 0.454102 0.660853 9.81026 0.656366 21.3103C0.654757 24.9865 1.61521 28.5747 3.44054 31.7377L0.481445 42.546L11.5385 39.6456C14.5849 41.3072 18.015 42.1831 21.5059 42.1843H21.5144C21.5151 42.1843 21.5139 42.1843 21.5146 42.1843C33.0098 42.1843 42.3673 32.8272 42.3722 21.3269C42.3742 15.7537 40.2066 10.5133 36.2687 6.571ZM21.5143 38.6617H21.5073C18.3966 38.6605 15.3455 37.8247 12.6838 36.2453L12.0508 35.8696L5.48939 37.5907L7.2408 31.1935L6.82856 30.5375C5.09323 27.7773 4.17672 24.5871 4.17807 21.3114C4.1818 11.7531 11.9589 3.97682 21.5213 3.97682C26.1517 3.97826 30.5045 5.78394 33.7777 9.06079C37.0507 12.3376 38.8522 16.6933 38.8504 21.3255C38.8465 30.8846 31.0696 38.6617 21.5143 38.6617Z" fill="url(#paint0_linear_63_1425)"/>
<path fill-rule="evenodd" clip-rule="evenodd" d="M31.0236 25.6778C30.5024 25.417 27.9401 24.1564 27.4624 23.9823C26.9847 23.8084 26.6372 23.7214 26.2899 24.2432C25.9425 24.7648 24.9437 25.9388 24.6396 26.2867C24.3357 26.6343 24.0315 26.6781 23.5105 26.417C22.9894 26.1561 21.3101 25.6059 19.3195 23.8303C17.7701 22.4483 16.7242 20.7418 16.4201 20.2199C16.1161 19.6983 16.3878 19.4162 16.6487 19.1563C16.8831 18.9227 17.1699 18.5476 17.4305 18.2433C17.691 17.9391 17.7779 17.7215 17.9516 17.3739C18.1254 17.026 18.0386 16.7216 17.9082 16.4609C17.7779 16.2 16.7357 13.6348 16.3014 12.5911C15.8782 11.575 15.4486 11.7127 15.1287 11.6965C14.8252 11.6814 14.4773 11.6782 14.1299 11.6782C13.7825 11.6782 13.2178 11.8087 12.7402 12.3303C12.2625 12.8521 10.916 14.1131 10.916 16.678C10.916 19.2433 12.7835 21.7215 13.0441 22.0693C13.3046 22.4172 16.7191 27.6811 21.947 29.9386C23.1905 30.4756 24.1612 30.7963 24.9181 31.0364C26.1666 31.4331 27.3027 31.3771 28.2007 31.2429C29.202 31.0933 31.2842 29.9822 31.7184 28.7649C32.1528 27.5474 32.1528 26.5038 32.0224 26.2866C31.8921 26.0692 31.5447 25.9388 31.0236 25.6778Z" fill="url(#paint1_linear_63_1425)"/>
<defs>
<linearGradient id="paint0_linear_63_1425" x1="14.76" y1="4.22004" x2="31.56" y2="51.74" gradientUnits="userSpaceOnUse">
<stop stop-color="#F2994A"/>
<stop offset="1" stop-color="#F2C94C"/>
</linearGradient>
<linearGradient id="paint1_linear_63_1425" x1="18.1361" y1="13.4376" x2="25.5075" y2="36.0052" gradientUnits="userSpaceOnUse">
<stop stop-color="#F2994A"/>
<stop offset="1" stop-color="#F2C94C"/>
</linearGradient>
</defs>
</svg>
