<svg width="53" height="48" viewBox="0 0 53 48" fill="none" xmlns="http://www.w3.org/2000/svg">
<path d="M20.9143 1.62183C20.3856 1.7812 19.5876 2.57808 19.428 3.12183C19.2983 3.52495 19.3183 4.08745 19.4679 4.54683C19.5178 4.69683 19.0789 5.1562 17.2235 6.89058L14.9293 9.04683L12.7348 6.98433C10.63 5.0062 10.5403 4.91245 10.5403 4.5562C10.5403 3.3187 9.43305 2.24995 8.14627 2.24995C6.8595 2.24995 5.75227 3.3187 5.75227 4.5562C5.75227 4.90308 5.67247 5.0062 3.9069 6.6562C2.88945 7.61245 2.06152 8.4187 2.06152 8.4562C2.06152 8.54058 3.04905 9.4687 3.13882 9.4687C3.17872 9.4687 3.97672 8.74683 4.91437 7.86558L6.6201 6.27183L7.059 6.48745C7.66747 6.78745 8.62507 6.78745 9.23355 6.48745L9.67245 6.27183L11.7273 8.1937L13.7821 10.125L12.5552 11.2687L11.3383 12.4218L10.8295 11.9343C10.3308 11.475 10.3208 11.4468 10.4305 11.1562C10.7098 10.3875 10.4904 9.59995 9.79215 8.95308C8.78467 7.99683 7.50787 7.99683 6.5004 8.95308C5.80215 9.59995 5.5827 10.3875 5.862 11.1562L5.9817 11.4562L4.01662 13.3031C2.93932 14.3156 2.06152 15.1875 2.06152 15.2437C2.06152 15.3093 2.3109 15.5531 2.62012 15.7968L3.17872 16.2468L5.15377 14.3906L7.12882 12.5343L7.44802 12.6468C7.86697 12.7781 8.42557 12.7781 8.84452 12.6468C9.16372 12.5343 9.16372 12.5343 10.251 13.5562L11.3383 14.5781L13.1338 12.8906L14.9293 11.2031L15.6375 11.8781C16.3457 12.5343 16.3557 12.5437 16.236 12.8437C15.7472 14.175 16.9841 15.75 18.5203 15.75C19.438 15.75 20.5352 15 20.7946 14.2031C20.8843 13.8937 21.5726 13.2 24.7546 10.2187C26.8693 8.2312 28.595 6.56245 28.595 6.51558C28.595 6.3937 27.6773 5.5312 27.5476 5.5312C27.4878 5.5312 25.8718 7.01245 23.9367 8.8312L20.4355 12.1218L20.0265 11.7937C19.3981 11.2875 18.5502 11.1187 17.822 11.3531C17.5028 11.4656 17.4928 11.4562 16.7946 10.7906L16.0764 10.125L18.3706 7.9687C20.226 6.22495 20.7048 5.81245 20.8644 5.85933C21.8818 6.14995 22.7896 5.93433 23.4579 5.2312C23.7073 4.97808 23.9068 4.7062 23.9068 4.6312C23.9068 4.52808 24.1661 4.49995 25.2035 4.49995H26.5003V3.74995V2.99995H25.2035C24.0963 2.99995 23.9068 2.9812 23.9068 2.84995C23.9068 2.59683 22.8993 1.73433 22.4504 1.61245C21.9616 1.4812 21.3931 1.4812 20.9143 1.62183ZM22.2609 3.23433C22.7596 3.6937 22.4105 4.49995 21.7123 4.49995C21.3033 4.49995 20.9143 4.13433 20.9143 3.74995C20.9143 3.36558 21.3033 2.99995 21.7123 2.99995C21.9018 2.99995 22.1113 3.08433 22.2609 3.23433ZM8.6949 3.98433C9.19365 4.4437 8.84452 5.24995 8.14627 5.24995C7.7373 5.24995 7.34827 4.88433 7.34827 4.49995C7.34827 4.11558 7.7373 3.74995 8.14627 3.74995C8.3358 3.74995 8.54527 3.83433 8.6949 3.98433ZM8.6949 9.98433C9.19365 10.4437 8.84452 11.25 8.14627 11.25C7.7373 11.25 7.34827 10.8843 7.34827 10.5C7.34827 10.1156 7.7373 9.74995 8.14627 9.74995C8.3358 9.74995 8.54527 9.83433 8.6949 9.98433ZM19.0689 12.9843C19.5676 13.4437 19.2185 14.25 18.5203 14.25C18.1113 14.25 17.7223 13.8843 17.7223 13.5C17.7223 13.1156 18.1113 12.75 18.5203 12.75C18.7098 12.75 18.9193 12.8343 19.0689 12.9843Z" fill="#EDEDED"/>
<path d="M31.9369 3.23438C31.7972 3.35625 31.6875 3.53437 31.6875 3.62812C31.6875 3.72187 31.9169 4.8 32.2062 6.01875L32.7249 8.25H36.0765H39.4281L39.9468 6.01875C40.2361 4.8 40.4655 3.72187 40.4655 3.62812C40.4655 3.53437 40.3558 3.35625 40.2161 3.23438L39.9767 3H36.0765H32.1763L31.9369 3.23438Z" fill="#EDEDED"/>
<path d="M30.5205 11.3718C28.1165 13.4531 27.2487 14.3343 26.351 15.6093C25.154 17.3062 24.4058 18.8343 23.9071 20.6531C23.3385 22.7156 23.3086 23.1843 23.3086 31.4625V39H23.5879C23.8472 39 23.8871 39.0562 24.3759 40.2843L24.8946 41.5781V39.5343L24.9046 37.5H25.3036H25.7026V33.4406V29.3812L25.2038 27.9937L24.7151 26.6062L25.4831 26.2781C25.9021 26.0906 28.4657 24.9843 31.1689 23.8031L36.0866 21.675L41.5629 24.0468C44.5753 25.3593 47.1289 26.475 47.2386 26.5218C47.4282 26.625 47.4182 26.6625 46.9394 28.0031L46.4506 29.3812V33.4406V37.5H46.8496H47.2486V40.5V43.5H36.4756C30.5504 43.5 25.7026 43.5281 25.7026 43.5656C25.7026 43.5937 25.8223 43.9312 25.9719 44.3156L26.2512 45H36.5255C48.1962 45 47.4082 45.0468 48.1763 44.25C48.4356 43.9875 48.6651 43.6218 48.7349 43.3875C48.8247 43.0781 48.8446 40.5468 48.8147 32.9531C48.7748 22.1718 48.7947 22.6218 48.2461 20.625C47.5878 18.2062 46.0416 15.5437 44.2461 13.7437C43.7873 13.2843 42.5903 12.1968 41.5928 11.325L39.7674 9.74997H39.1788C38.6701 9.74997 38.5903 9.76872 38.6302 9.90935C38.6502 10.0031 38.9594 11.8875 39.3185 14.1093C39.6776 16.3218 39.9968 18.2531 40.0267 18.3843C40.0766 18.6281 40.0566 18.6281 39.3185 18.7406C38.8995 18.8062 38.5305 18.8437 38.5105 18.825C38.4906 18.7968 38.1514 16.8468 37.7724 14.475C37.3833 12.1125 37.0442 10.0781 37.0242 9.95622C36.9744 9.7781 36.9045 9.74997 36.4756 9.74997C36.0467 9.74997 35.9769 9.7781 35.927 9.95622C35.907 10.0781 35.5679 12.1125 35.1789 14.475C34.7998 16.8468 34.4607 18.7968 34.4507 18.8156C34.4307 18.8343 34.0617 18.7968 33.6427 18.7406C32.8846 18.6375 32.8746 18.6281 32.9245 18.3843C32.9544 18.2531 33.2736 16.3218 33.6327 14.1093C33.9918 11.8875 34.3011 10.0031 34.321 9.90935C34.3609 9.76872 34.2612 9.74997 33.3833 9.74997H32.3958L30.5205 11.3718Z" fill="#EDEDED"/>
<path d="M10.7894 18.9844C10.56 19.1906 10.54 19.2844 10.54 20.1094V21H12.7246C14.959 21 15.3181 21.0469 15.8567 21.3937C16.126 21.5719 16.126 21.5719 16.4053 21.3937C16.8143 21.1219 17.2931 21 17.9315 21H18.52V20.1094C18.52 19.2844 18.5001 19.1906 18.2707 18.9844L18.0313 18.75H14.53H11.0288L10.7894 18.9844Z" fill="#EDEDED"/>
<path d="M7.59801 22.7344C7.35861 22.95 7.34863 23.0062 7.34863 24.2344V25.5H11.3386H15.3286V24.2344C15.3286 23.0062 15.3187 22.95 15.0793 22.7344L14.8399 22.5H11.3386H7.83741L7.59801 22.7344Z" fill="#EDEDED"/>
<path d="M17.1732 22.7344C16.9338 22.95 16.9238 23.0062 16.9238 24.2344V25.5H19.3178H21.7118L21.7218 24.6281C21.7218 24.1594 21.7517 23.4844 21.8016 23.1281L21.8714 22.5H19.647H17.4126L17.1732 22.7344Z" fill="#EDEDED"/>
<path d="M31.3985 25.3594C28.8549 26.4656 26.7601 27.3844 26.7402 27.4031C26.7202 27.4219 26.7801 27.6656 26.8798 27.9469L27.0693 28.4531H36.0768H45.0842L45.2737 27.9469C45.3735 27.6656 45.4333 27.4219 45.4034 27.3937C45.3435 27.3375 36.1466 23.3437 36.0768 23.3437C36.0468 23.3437 33.9421 24.2531 31.3985 25.3594ZM36.8748 26.25V27H36.0768H35.2788V26.25V25.5H36.0768H36.8748V26.25Z" fill="#EDEDED"/>
<path d="M7.34863 28.5V30H11.3386H15.3286V28.5V27H11.3386H7.34863V28.5Z" fill="#EDEDED"/>
<path d="M16.9238 28.5V30H19.3178H21.7118V28.5V27H19.3178H16.9238V28.5Z" fill="#EDEDED"/>
<path d="M27.2979 33.75V37.5H28.8939H30.4899V33.75V30H28.8939H27.2979V33.75Z" fill="#EDEDED"/>
<path d="M32.0859 33.75V37.5H33.6819H35.2779V33.75V30H33.6819H32.0859V33.75Z" fill="#EDEDED"/>
<path d="M36.874 33.75V37.5H38.47H40.066V33.75V30H38.47H36.874V33.75Z" fill="#EDEDED"/>
<path d="M41.6621 33.75V37.5H43.2581H44.8541V33.75V30H43.2581H41.6621V33.75Z" fill="#EDEDED"/>
<path d="M7.34863 33V34.5H8.77506H10.2015L10.4908 33.75L10.78 33H13.0543H15.3286V32.25V31.5H11.3386H7.34863V33Z" fill="#EDEDED"/>
<path d="M16.9238 32.25V33H17.6021H18.2804L18.5697 33.75L18.859 34.5H20.2854H21.7118V33V31.5H19.3178H16.9238V32.25Z" fill="#EDEDED"/>
<path d="M11.0094 36.6844C10.5306 37.8937 10.1416 38.9062 10.1416 38.9344C10.1416 38.9719 12.1167 39 14.5306 39C16.9445 39 18.9196 38.9719 18.9196 38.9344C18.9196 38.9062 18.5306 37.8937 18.0518 36.6844L17.174 34.5H14.5306H11.8872L11.0094 36.6844Z" fill="#EDEDED"/>
<path d="M7.34863 37.5V39H7.87731H8.39601L8.97456 37.5656C9.28378 36.7687 9.54313 36.0938 9.54313 36.0656C9.54313 36.0281 9.05436 36 8.44588 36H7.34863V37.5Z" fill="#EDEDED"/>
<path d="M19.5176 36.0656C19.5176 36.0938 19.7769 36.7687 20.0862 37.5656L20.6647 39H21.1834H21.7121V37.5V36H20.6148C20.0163 36 19.5176 36.0281 19.5176 36.0656Z" fill="#EDEDED"/>
<path d="M26.5 40.5V42H36.076H45.652V40.5V39H36.076H26.5V40.5Z" fill="#EDEDED"/>
<path d="M5.42349 42.6844C4.94469 43.8937 4.55566 44.9062 4.55566 44.9344C4.55566 44.9719 6.53071 45 8.94466 45C11.3586 45 13.3337 44.9719 13.3337 44.9344C13.3337 44.9062 12.9446 43.8937 12.4658 42.6844L11.588 40.5H8.94466H6.30129L5.42349 42.6844Z" fill="#EDEDED"/>
<path d="M13.333 40.5656C13.333 40.6875 14.4801 43.5 14.53 43.5C14.5799 43.5 15.727 40.6875 15.727 40.5656C15.727 40.5281 15.1884 40.5 14.53 40.5C13.8717 40.5 13.333 40.5281 13.333 40.5656Z" fill="#EDEDED"/>
<path d="M16.5954 42.6844C16.1166 43.8937 15.7275 44.9062 15.7275 44.9344C15.7275 44.9719 17.7026 45 20.1165 45C22.5305 45 24.5055 44.9719 24.5055 44.9344C24.5055 44.9062 24.1165 43.8937 23.6377 42.6844L22.7599 40.5H20.1165H17.4732L16.5954 42.6844Z" fill="#EDEDED"/>
</svg>
