<svg width="53" height="48" viewBox="0 0 53 48" fill="none" xmlns="http://www.w3.org/2000/svg">
<path d="M2.69007 4.94068C2.53989 5.28755 2.61999 8.91568 2.80021 9.8063C3.52111 13.4813 5.46354 15.7782 8.64751 16.7344C9.52861 16.9969 9.77892 17.1938 9.77892 17.6344C9.77892 17.9438 9.45852 18.3376 9.13812 18.4126C8.84776 18.4782 7.47605 18.0938 6.72511 17.7469C5.79395 17.3063 4.88281 16.6969 4.16191 16.0313L3.44101 15.3751L3.49107 16.2938C3.53112 17.0907 3.58119 17.2969 3.87155 17.8407C4.90284 19.8001 7.7564 20.8969 11.5511 20.7938C12.5924 20.7657 12.6024 20.7657 12.8427 21.0282C13.1231 21.3282 13.1431 21.5532 12.9329 21.9282C12.7426 22.2844 12.6024 22.3219 11.461 22.3782C8.7176 22.5188 5.48356 21.7126 4.05177 20.5407C3.80146 20.3251 3.56116 20.1563 3.53112 20.1563C3.40096 20.1563 3.48106 20.8501 3.68131 21.3938C4.17192 22.7719 5.33337 23.7376 7.21572 24.3376C7.5962 24.4594 8.11685 24.5813 8.37717 24.6188C8.78769 24.6657 8.88781 24.6469 9.07805 24.4688C9.58869 23.9907 9.46854 24.0001 16.9379 24.0001H23.9066L23.8765 22.0032C23.8465 20.1188 23.8365 19.9969 23.6062 19.5938C22.9854 18.4969 22.4648 18.1501 20.6525 17.6157C13.9641 15.6469 7.85652 11.3907 3.53112 5.6813C3.16066 5.18443 2.83025 4.7813 2.81022 4.7813C2.78019 4.7813 2.73012 4.8563 2.69007 4.94068Z" fill="#EDEDED"/>
<path d="M49.4782 5.67193C45.1328 11.4094 39.1153 15.6094 32.3368 17.6251C30.5145 18.1688 30.0139 18.4969 29.3931 19.5938C29.1629 19.9969 29.1528 20.1188 29.1228 22.0032L29.0928 24.0001H36.0615C43.5308 24.0001 43.4106 23.9907 43.9213 24.4688C44.1115 24.6469 44.2116 24.6657 44.6222 24.6188C45.2129 24.5438 46.3043 24.2063 47.0151 23.8688C47.6259 23.5782 48.4169 22.9126 48.8374 22.3501C49.1979 21.8532 49.5483 20.8782 49.5082 20.4563L49.4782 20.1282L48.9776 20.5219C47.4357 21.7313 44.2917 22.5188 41.5383 22.3782C40.3969 22.3219 40.2567 22.2844 40.0665 21.9282C39.8562 21.5532 39.8762 21.3282 40.1566 21.0282C40.3969 20.7657 40.4069 20.7657 41.4582 20.7938C43.4207 20.8501 45.4532 20.5126 46.8049 19.9126C47.7861 19.4719 48.6972 18.6657 49.1378 17.8407C49.4282 17.2782 49.4782 17.1001 49.5082 16.2657L49.5483 15.3282L49.1378 15.7688C48.5871 16.3501 47.2755 17.2688 46.4344 17.6626C45.5433 18.0844 44.1716 18.4876 43.8612 18.4126C43.5408 18.3376 43.2204 17.9438 43.2204 17.6344C43.2204 17.1938 43.4707 16.9969 44.3518 16.7344C47.5458 15.7688 49.4682 13.5001 50.1991 9.8063C50.4094 8.78443 50.4594 5.05318 50.2692 4.87505C50.1891 4.80005 49.9688 5.01568 49.4782 5.67193Z" fill="#EDEDED"/>
<path d="M3.50148 24.6563C3.62163 25.9406 4.68296 27.2625 6.10473 27.9188C6.68546 28.1813 7.65667 28.5 8.30748 28.6313L8.57782 28.6875V27.4688C8.57782 26.3531 8.55779 26.25 8.39759 26.25C8.29747 26.25 7.83689 26.1656 7.36631 26.0531C6.29497 25.8094 4.89322 25.1719 4.08221 24.5531L3.44141 24.075L3.50148 24.6563Z" fill="#EDEDED"/>
<path d="M48.8774 24.5812C47.8762 25.3594 45.6334 26.2406 44.6522 26.25C44.4219 26.25 44.4219 26.2687 44.4219 27.4687V28.6781L44.7523 28.6219C45.4732 28.4906 46.6146 28.0969 47.2254 27.75C48.497 27.0562 49.3881 25.8375 49.4982 24.6562C49.5283 24.3469 49.5383 24.0937 49.5182 24.1031C49.4982 24.1031 49.2079 24.3187 48.8774 24.5812Z" fill="#EDEDED"/>
<path d="M10.2793 34.4062V43.2188H26.4996H42.7198V34.4062V25.5938H26.4996H10.2793V34.4062ZM36.9526 27.3187C37.3531 27.4781 37.6735 27.8719 37.7636 28.3219C37.9338 29.1656 38.7048 29.8875 39.636 30.0937C40.2968 30.2344 40.5771 30.3937 40.8174 30.7781C41.0077 31.0594 41.0177 31.275 41.0177 34.3406C41.0177 38.4094 41.0477 38.3156 39.6159 38.7188C39.2154 38.8312 38.7949 39.0281 38.5546 39.225C38.1641 39.5344 38.064 39.7031 37.6535 40.7344C37.4933 41.1281 37.3831 41.2406 37.0127 41.4094L36.5721 41.625H26.4996H16.427L15.9864 41.4187C15.5258 41.1937 15.5359 41.2219 15.0753 40.0406C14.8049 39.375 14.084 38.8219 13.283 38.6812C13.0928 38.6531 12.7824 38.5406 12.6022 38.4375C12.0014 38.0906 11.9814 37.95 11.9814 34.3406C11.9814 31.275 11.9914 31.0594 12.1817 30.7781C12.432 30.3937 12.7123 30.225 13.3131 30.0937C14.2743 29.8969 15.0653 29.1656 15.2355 28.3406C15.3256 27.8812 15.5959 27.5344 16.0064 27.3469C16.3068 27.2062 17.3381 27.1875 26.4795 27.1875C34.9 27.1875 36.6723 27.2062 36.9526 27.3187Z" fill="#EDEDED"/>
<path d="M16.8275 28.9406C16.437 30.15 15.4458 31.1344 14.2543 31.5094L13.7337 31.6781L13.7036 34.3875L13.6836 37.1062L14.0541 37.2281C15.3156 37.6031 16.2768 38.4562 16.7374 39.5812L16.9176 40.0312H26.4996H36.0816L36.2618 39.5812C36.7224 38.4562 37.6836 37.6031 38.9451 37.2281L39.3156 37.1062L39.2956 34.3875L39.2655 31.6594L38.845 31.5469C38.2743 31.3875 37.5133 30.9187 37.0628 30.4594C36.7524 30.1312 36.3219 29.4094 36.1717 28.9406C36.1216 28.7906 35.5709 28.7812 26.4996 28.7812C17.4283 28.7812 16.8776 28.7906 16.8275 28.9406ZM27.2605 30.4781C29.4733 30.8625 31.0553 32.8969 30.7149 34.9406C30.2643 37.65 27.2906 39.1406 24.6473 37.9781C23.0253 37.2656 22.014 35.5125 22.2843 33.8719C22.5647 32.1937 23.8663 30.8625 25.5985 30.5062C26.3094 30.3562 26.5396 30.3562 27.2605 30.4781ZM18.7499 32.1094C19.7912 32.4 20.5021 33.3187 20.5021 34.3781C20.5121 35.0625 20.3019 35.55 19.8112 36.0375C19.2906 36.5437 18.78 36.75 17.979 36.75C16.7875 36.75 15.8463 36.1125 15.5159 35.0719C15.2455 34.2 15.4558 33.3937 16.1266 32.7375C16.8275 32.0344 17.7286 31.8187 18.7499 32.1094ZM36.1717 32.2312C37.8037 33.0094 38.1041 35.0625 36.7524 36.1781C36.2518 36.5906 35.7511 36.75 34.9702 36.75C34.2893 36.75 33.8788 36.6 33.3582 36.1781C32.397 35.3812 32.2267 33.9844 32.9677 32.9812C33.6485 32.0719 35.1103 31.725 36.1717 32.2312Z" fill="#EDEDED"/>
<path d="M25.9296 32.0532C25.3588 32.1938 24.688 32.6251 24.3976 33.0657C23.2762 34.7157 24.4477 36.7688 26.5003 36.7688C28.5829 36.7688 29.7443 34.6501 28.5729 33.0282C28.0222 32.2782 26.8307 31.8376 25.9296 32.0532Z" fill="#EDEDED"/>
<path d="M17.3781 33.8344C17.0577 34.1438 17.0176 34.3781 17.2379 34.7719C17.6184 35.4656 18.7899 35.175 18.7899 34.3875C18.7798 34.0406 18.6497 33.8344 18.3193 33.675C17.9688 33.4969 17.6885 33.5438 17.3781 33.8344Z" fill="#EDEDED"/>
<path d="M34.6595 33.675C34.3492 33.8438 34.219 34.05 34.209 34.3875C34.209 35.175 35.3804 35.4656 35.7609 34.7719C35.9812 34.3781 35.9411 34.1438 35.6207 33.8344C35.3104 33.5532 34.99 33.4969 34.6595 33.675Z" fill="#EDEDED"/>
</svg>
