<svg width="43" height="48" viewBox="0 0 43 48" fill="none" xmlns="http://www.w3.org/2000/svg">
<path d="M16.2025 0.102783C14.3071 0.403595 12.7196 0.898483 11.0071 1.72329C3.38723 5.40097 -0.663232 13.7849 1.15515 22.0816C1.66506 24.391 2.51171 26.3317 4.03184 28.6412C5.13826 30.3297 5.66742 31.2612 6.33127 32.6779C8.06306 36.3556 9.01554 40.8193 9.15024 45.8846L9.20796 48H9.97765H10.7473L10.6896 45.7876C10.5068 38.8106 8.91933 33.3572 5.55197 28.156C4.96508 27.2439 4.27237 26.0697 4.00298 25.5263C1.49188 20.461 1.72279 14.4739 4.63797 9.52503C5.2922 8.40911 6.29279 7.16704 7.39921 6.09964C11.8249 1.80092 18.1363 0.35508 23.9763 2.2861C29.2871 4.04247 33.3857 8.41881 34.7807 13.8237C35.0597 14.9106 35.3484 16.7834 35.3484 17.5597C35.358 17.909 35.6755 18.5106 37.744 22.0913L40.1396 26.2153L37.9364 26.2638C35.993 26.3026 35.7236 26.3317 35.5696 26.487C35.4061 26.6423 35.3965 27.0304 35.3484 31.7949C35.3003 36.7826 35.2906 36.9281 35.0982 37.1901C34.9924 37.3357 34.7807 37.5492 34.6364 37.6559C34.3766 37.85 34.2419 37.8597 29.8547 37.8888L25.3425 37.9179V38.6845V39.4608H26.8818H28.4212V43.7304V48H29.1909H29.9606V43.7401V39.4802L32.2985 39.4414L34.6268 39.4123L35.2329 39.0823C35.9064 38.7136 36.195 38.4128 36.5798 37.6753L36.8396 37.1804L36.8685 32.4936L36.8973 27.8164H39.3507H41.8041L42.035 27.5738C42.1697 27.4477 42.2755 27.2245 42.2755 27.0886C42.2755 26.9334 41.2461 25.0606 39.5912 22.1883L36.907 17.5402L36.7915 16.4437C36.0122 8.41881 30.2781 1.98529 22.408 0.296856C21.4171 0.083374 20.9649 0.0348587 19.1369 0.00574493C17.6937 -0.0136604 16.7605 0.0154495 16.2025 0.102783Z" fill="#EDEDED"/>
<path d="M16.5868 4.67313C13.0751 5.22625 9.86168 7.55517 8.23572 10.7089C7.90861 11.3494 7.35059 12.6691 7.35059 12.8146C7.35059 12.8632 8.80337 13.2901 8.83223 13.2513C8.84185 13.2319 8.97654 12.8826 9.12086 12.4653C10.1696 9.51534 12.9981 7.07968 16.2501 6.31308C17.4238 6.03167 19.6174 6.06078 20.7623 6.3616C25.0918 7.49694 28.1032 11.1165 28.3918 15.5317C28.4399 16.3662 28.488 16.5312 28.6708 16.7253C28.9402 16.997 29.3828 17.0164 29.6522 16.7738C29.758 16.6865 30.3641 15.7258 30.9991 14.6487L32.1537 12.6982L31.5668 12.3294C31.2397 12.1354 30.9414 11.951 30.9029 11.9316C30.8644 11.9122 30.5854 12.3197 30.2872 12.8243L29.7388 13.7559L29.5079 12.9505C29.0172 11.2329 28.0551 9.54445 26.814 8.21503C24.1874 5.40092 20.3679 4.0812 16.5868 4.67313Z" fill="#EDEDED"/>
<path d="M16.587 8.6227C16.1252 8.94292 15.8943 9.30196 15.8462 9.79685C15.7981 10.1753 15.7499 10.2529 15.5094 10.3597C15.3555 10.4179 15.0572 10.6023 14.836 10.7575L14.4415 11.0486L14.0182 10.8351C13.5082 10.5828 12.8636 10.612 12.4596 10.9031C12.0843 11.1845 10.8144 13.3484 10.747 13.8239C10.6797 14.3091 10.9683 14.8622 11.4397 15.1824L11.7765 15.3959V16.2013V16.997L11.4493 17.1814C10.9972 17.4239 10.6797 18.0256 10.747 18.5205C10.8144 18.9959 12.0843 21.1599 12.4692 21.4413C12.8444 21.7227 13.566 21.7615 14.0182 21.5286L14.3741 21.3345L15.0861 21.7421C15.7692 22.1302 15.7981 22.1496 15.8462 22.5669C15.8943 23.023 16.1059 23.3723 16.5293 23.6828C16.7698 23.8672 16.9237 23.8866 18.415 23.8866C19.9062 23.8866 20.0602 23.8672 20.3007 23.6828C20.724 23.3723 20.9357 23.023 20.9838 22.5475C21.0319 22.169 21.08 22.0914 21.3205 21.9847C21.4745 21.9265 21.7727 21.7421 21.994 21.5868L22.3885 21.2957L22.8118 21.5092C23.3313 21.7712 23.9278 21.7421 24.3704 21.4219C24.7456 21.1502 26.006 19.0445 26.0829 18.5593C26.1599 18.0644 25.8905 17.5016 25.4287 17.1911L25.0535 16.9485V16.1722V15.3862L25.3902 15.1824C25.7751 14.9592 26.1118 14.3867 26.1118 13.9694C26.1118 13.4648 24.8707 11.2815 24.3704 10.9031C23.9759 10.612 23.3409 10.5828 22.8695 10.8157L22.475 11.0195L21.7535 10.612C21.0511 10.2141 21.0319 10.1947 20.9838 9.77744C20.9261 9.30196 20.7048 8.94292 20.243 8.6227C19.9447 8.42863 19.8196 8.40922 18.415 8.40922C17.0103 8.40922 16.8852 8.42863 16.587 8.6227ZM19.4733 10.3403C19.4733 11.0583 19.7331 11.2912 21.7823 12.3974C22.2057 12.6303 22.706 12.6303 23.1581 12.3974L23.5141 12.2131L24.0048 13.0379L24.5051 13.8724L24.2742 14.0471C24.1491 14.1441 24.0144 14.2314 23.9759 14.2314C23.9471 14.2314 23.822 14.377 23.7162 14.5614C23.5334 14.8428 23.5141 15.0368 23.5141 16.1722C23.5141 17.3075 23.5334 17.5016 23.7162 17.783C23.822 17.9673 23.9471 18.1129 23.9759 18.1129C24.0144 18.1129 24.1491 18.2002 24.2742 18.2973L24.5051 18.4719L24.0048 19.3065L23.5141 20.1313L23.1581 19.9469C22.706 19.714 22.2057 19.714 21.7823 19.9469C19.7331 21.0531 19.4733 21.286 19.4733 22.0041V22.3825H18.415H17.3567V22.0138C17.3567 21.6062 17.0873 21.1016 16.7602 20.8979C14.8744 19.7528 14.3645 19.5976 13.7103 19.9372L13.3254 20.141L12.8252 19.3065L12.3249 18.4719L12.5558 18.2973C12.6808 18.2002 12.8155 18.1129 12.854 18.1129C12.8829 18.1129 13.008 17.9673 13.1138 17.783C13.2966 17.5016 13.3158 17.3075 13.3158 16.1722C13.3158 15.0368 13.2966 14.8428 13.1138 14.5614C13.008 14.377 12.8829 14.2314 12.854 14.2314C12.8155 14.2314 12.6808 14.1441 12.5558 14.0471L12.3249 13.8724L12.8252 13.0379L13.3254 12.2034L13.6814 12.3877C14.124 12.6303 14.6243 12.6303 15.0476 12.3974C17.0969 11.2912 17.3567 11.0583 17.3567 10.3403V9.96181H18.415H19.4733V10.3403Z" fill="#EDEDED"/>
<path d="M17.5005 12.8053C16.4518 13.1643 15.711 13.8047 15.2684 14.7653C15.0375 15.2602 14.999 15.4737 14.999 16.1723C14.999 16.8709 15.0375 17.0844 15.2684 17.589C15.6148 18.3361 16.269 18.9959 17.0195 19.3453C17.5101 19.5781 17.7218 19.6169 18.4145 19.6169C19.1073 19.6169 19.3189 19.5781 19.8096 19.3453C20.56 18.9959 21.2143 18.3361 21.5606 17.589C21.7915 17.0844 21.83 16.8709 21.83 16.1723C21.83 15.4737 21.7915 15.2602 21.5606 14.7556C21.0122 13.5621 19.8577 12.7762 18.5685 12.7083C18.174 12.6986 17.7218 12.7374 17.5005 12.8053ZM19.5113 14.5907C20.0405 14.9691 20.2907 15.4931 20.2907 16.2208C20.2907 17.3173 19.5498 18.0644 18.4723 18.0644C17.1061 18.0644 16.2305 16.9195 16.5769 15.6095C16.7116 15.1147 17.2985 14.4742 17.7603 14.3384C18.2991 14.1734 19.0784 14.2802 19.5113 14.5907Z" fill="#EDEDED"/>
<path d="M7.17823 15.5607C7.0724 15.6577 6.46628 16.6183 5.83129 17.6954L4.67676 19.6458L5.26364 20.0146C5.59076 20.2086 5.88901 20.393 5.9275 20.4124C5.96598 20.4318 6.24499 20.0243 6.54324 19.5197L7.09164 18.5882L7.32255 19.3935C8.19807 22.4404 10.3436 25.0604 13.1818 26.5256C19.3296 29.6987 26.7956 26.7585 29.249 20.1892C29.374 19.8302 29.4702 19.5294 29.451 19.5003C29.3836 19.4421 28.0271 19.0636 27.9982 19.1024C27.9886 19.1218 27.8635 19.4421 27.7288 19.8302C26.6416 22.8383 23.8612 25.2642 20.5804 26.0307C19.4547 26.3024 17.2226 26.283 16.1066 26.0016C11.7963 24.9051 8.72723 21.2372 8.43859 16.8124C8.39049 15.9779 8.34238 15.813 8.15958 15.6189C7.89019 15.3472 7.44762 15.3278 7.17823 15.5607Z" fill="#EDEDED"/>
</svg>
