<svg width="53" height="48" viewBox="0 0 53 48" fill="none" xmlns="http://www.w3.org/2000/svg">
<path d="M44.9927 3V3.75H46.0178H47.053L43.2139 7.33125L39.3647 10.9219L35.9175 7.70625C32.7317 4.73438 32.4503 4.5 32.1287 4.5C31.8071 4.5 31.4654 4.8 27.1338 8.83125L22.4807 13.1719L19.8375 10.7063C17.4054 8.44688 17.1642 8.25 16.8527 8.25C16.5311 8.25 16.1291 8.60625 10.7724 13.5938L5.04395 18.9375L5.62685 19.4719L6.1997 20.0156L11.5262 15.0469L16.8527 10.0781L19.4958 12.5438C21.9279 14.8031 22.1691 15 22.4807 15C22.8023 15 23.154 14.7 27.4755 10.6688L32.1287 6.32813L35.5758 9.54375C38.7617 12.5156 39.0431 12.75 39.3647 12.75C39.6863 12.75 40.0079 12.4688 43.9576 8.79375L48.2087 4.82813V5.79375V6.75H49.0127H49.8167V4.73438C49.8167 2.03438 50.0479 2.25 47.1535 2.25H44.9927V3Z" fill="#EDEDED"/>
<path d="M38.5605 21.75V27.75H40.5705H42.5806V21.75V15.75H40.5705H38.5605V21.75Z" fill="#EDEDED"/>
<path d="M24.0889 22.5V27.75H26.0989H28.1089V22.5V17.25H26.0989H24.0889V22.5Z" fill="#EDEDED"/>
<path d="M31.3242 24V27.75H33.3342H35.3442V24V20.25H33.3342H31.3242V24Z" fill="#EDEDED"/>
<path d="M16.8525 24.75V27.75H18.8625H20.8725V24.75V21.75H18.8625H16.8525V24.75Z" fill="#EDEDED"/>
<path d="M45.997 28.3032C45.6553 28.425 41.4544 30.4032 41.2936 30.5157C41.2835 30.525 41.3237 30.6563 41.384 30.8063C41.4443 30.9563 41.4946 31.3594 41.4946 31.7063C41.4946 32.4657 41.1428 33.2813 40.5901 33.7782C40.0775 34.2469 30.5602 39.4969 29.6155 39.8344C28.3492 40.2938 27.3743 40.4344 25.8166 40.3875C24.49 40.3407 24.2789 40.3032 20.2288 39.3844C17.9072 38.8688 15.9977 38.4282 15.9877 38.4094C15.9575 38.3813 16.3193 37.0219 16.3696 36.9938C16.3897 36.9844 18.2288 37.3875 20.47 37.9032C24.299 38.775 24.6206 38.8313 25.8568 38.8782C26.9824 38.9157 27.2939 38.8969 28.0175 38.7282C29.2135 38.4469 29.6054 38.25 34.0877 35.775C39.4444 32.8032 39.4846 32.7844 39.7057 32.4188C40.2886 31.5094 39.6052 30.2813 38.1278 29.5594C37.6555 29.325 37.5047 29.2969 36.5701 29.2969H35.5349L31.6958 31.125L27.8567 32.9532H26.9522H26.0477L23.485 31.6875C20.47 30.1969 19.8871 29.9532 18.8117 29.7188C17.0329 29.3344 15.3545 29.4 13.6963 29.9157C12.8119 30.1875 11.626 30.7219 11.626 30.8344C11.626 30.9938 14.1184 41.9157 14.1586 41.9532C14.1787 41.9813 14.6108 41.9157 15.1033 41.8125C15.5957 41.7094 16.2892 41.625 16.6409 41.625C17.0027 41.625 19.7866 41.8782 22.8217 42.1969C28.7009 42.8063 29.324 42.825 30.6305 42.5157C31.736 42.2438 32.6003 41.8032 35.2937 40.1157C36.7309 39.2063 40.4494 36.8813 43.5448 34.9407C46.6502 33 49.3034 31.2844 49.4441 31.125C49.7456 30.7875 49.8662 30.3282 49.7657 29.8407C49.6652 29.325 48.7004 28.4719 48.007 28.275C47.3135 28.0782 46.5698 28.0875 45.997 28.3032Z" fill="#EDEDED"/>
<path d="M6.16931 29.0063C4.58141 29.3344 3.26486 29.6157 3.23471 29.6344C3.19451 29.6719 6.77231 45.6563 6.83261 45.7125C6.86276 45.75 12.9631 44.5407 13.0134 44.4844C13.0435 44.4563 9.56621 28.9125 9.45566 28.5657C9.42551 28.4813 9.32501 28.4063 9.23456 28.4157C9.14411 28.4157 7.76726 28.6875 6.16931 29.0063ZM7.70696 31.5657C7.76726 31.8657 7.84766 32.1938 7.87781 32.3063C7.91801 32.4844 7.85771 32.5125 7.33511 32.6157C7.01351 32.6719 6.66176 32.7469 6.54116 32.775C6.35021 32.8219 6.32006 32.7657 6.20951 32.2313C6.13916 31.9032 6.06881 31.575 6.03866 31.4907C5.99846 31.3688 6.13916 31.3125 6.72206 31.1907C7.12406 31.1157 7.48586 31.05 7.52606 31.0407C7.56626 31.0407 7.64666 31.275 7.70696 31.5657Z" fill="#EDEDED"/>
</svg>
