<svg width="461" height="367" viewBox="0 0 461 367" fill="none" xmlns="http://www.w3.org/2000/svg">
<g clip-path="url(#clip0_63_678)">
<path d="M195.473 352.507C197.161 352.612 198.093 350.516 196.817 349.295L196.69 348.79C196.706 348.749 196.723 348.709 196.74 348.668C198.446 344.6 204.229 344.628 205.921 348.703C207.422 352.319 209.334 355.942 209.805 359.765C210.016 361.453 209.921 363.173 209.546 364.829C213.065 357.144 214.916 348.751 214.916 340.312C214.916 338.191 214.8 336.071 214.563 333.956C214.368 332.225 214.099 330.506 213.751 328.802C211.867 319.592 207.79 310.82 201.908 303.493C199.081 301.948 196.723 299.532 195.299 296.636C194.787 295.592 194.386 294.468 194.196 293.324C194.518 293.366 195.41 288.465 195.167 288.165C195.615 287.484 196.418 287.146 196.908 286.482C199.343 283.18 202.699 283.756 204.451 288.244C208.193 290.133 208.229 293.265 205.933 296.277C204.472 298.194 204.271 300.787 202.99 302.839C203.122 303.008 203.259 303.172 203.391 303.34C205.809 306.442 207.9 309.776 209.664 313.278C209.165 309.386 209.901 304.696 211.155 301.674C212.583 298.229 215.259 295.329 217.616 292.351C220.446 288.775 226.251 290.336 226.75 294.869C226.755 294.913 226.759 294.957 226.764 295.001C226.414 295.198 226.071 295.408 225.736 295.63C223.825 296.893 224.486 299.855 226.75 300.205L226.801 300.212C226.674 301.473 226.458 302.723 226.141 303.952C229.165 315.644 222.638 319.902 213.318 320.093C213.112 320.199 212.912 320.304 212.706 320.404C213.65 323.063 214.405 325.79 214.964 328.554C215.465 330.996 215.813 333.465 216.008 335.944C216.251 339.072 216.23 342.216 215.966 345.339L215.982 345.228C216.652 341.789 218.519 338.576 221.23 336.35C225.27 333.032 230.976 331.811 235.333 329.144C237.431 327.86 240.119 329.519 239.753 331.951L239.735 332.067C239.086 332.331 238.453 332.637 237.841 332.98C237.491 333.177 237.148 333.387 236.813 333.608C234.903 334.872 235.563 337.834 237.827 338.183L237.878 338.191C237.915 338.196 237.947 338.202 237.984 338.207C236.871 340.85 235.32 343.302 233.379 345.418C231.488 355.624 223.369 356.592 214.684 353.62H214.679C213.729 357.756 212.342 361.796 210.559 365.647H195.842C195.789 365.483 195.742 365.314 195.694 365.151C197.055 365.235 198.427 365.156 199.767 364.908C198.675 363.568 197.583 362.218 196.491 360.878C196.465 360.852 196.443 360.825 196.422 360.799C195.868 360.113 195.309 359.433 194.755 358.747L194.755 358.746C194.72 356.641 194.973 354.543 195.473 352.507L195.473 352.507Z" fill="#F2F2F2"/>
<path d="M0 365.938C0 366.477 0.432875 366.91 0.97192 366.91H330.338C330.877 366.91 331.31 366.477 331.31 365.938C331.31 365.399 330.877 364.966 330.338 364.966H0.97192C0.432875 364.966 0 365.399 0 365.938Z" fill="#CCCCCC"/>
<path d="M444.891 366.692H276.2C267.318 366.692 260.092 359.466 260.092 350.583V16.1088C260.092 7.22656 267.318 0 276.2 0H444.891C453.773 0 461 7.22656 461 16.1088V350.583C461 359.466 453.773 366.692 444.891 366.692ZM276.2 1.63337C268.206 1.63337 261.725 8.11407 261.725 16.1084V350.583C261.725 358.578 268.206 365.059 276.201 365.059H444.891C452.885 365.059 459.366 358.578 459.366 350.583V123.079C459.366 56.0063 404.993 1.63337 337.919 1.63337H276.2Z" fill="#F2C94C"/>
<path d="M308.005 165.067C318.831 165.067 327.606 156.292 327.606 145.467C327.606 134.642 318.831 125.867 308.005 125.867C297.18 125.867 288.404 134.642 288.404 145.467C288.404 156.292 297.18 165.067 308.005 165.067Z" fill="#E6E6E6"/>
<path d="M413.087 165.067C423.913 165.067 432.688 156.292 432.688 145.467C432.688 134.642 423.913 125.867 413.087 125.867C402.262 125.867 393.486 134.642 393.486 145.467C393.486 156.292 402.262 165.067 413.087 165.067Z" fill="#E6E6E6"/>
<path d="M360.546 165.067C371.371 165.067 380.146 156.292 380.146 145.467C380.146 134.642 371.371 125.867 360.546 125.867C349.721 125.867 340.945 134.642 340.945 145.467C340.945 156.292 349.721 165.067 360.546 165.067Z" fill="#E6E6E6"/>
<path d="M308.005 221.419C318.831 221.419 327.606 212.644 327.606 201.819C327.606 190.993 318.831 182.218 308.005 182.218C297.18 182.218 288.404 190.993 288.404 201.819C288.404 212.644 297.18 221.419 308.005 221.419Z" fill="#E6E6E6"/>
<path d="M413.086 221.419C423.912 221.419 432.687 212.644 432.687 201.819C432.687 190.993 423.912 182.218 413.086 182.218C402.261 182.218 393.485 190.993 393.485 201.819C393.485 212.644 402.261 221.419 413.086 221.419Z" fill="#E6E6E6"/>
<path d="M360.546 221.419C371.371 221.419 380.146 212.644 380.146 201.819C380.146 190.993 371.371 182.218 360.546 182.218C349.721 182.218 340.945 190.993 340.945 201.819C340.945 212.644 349.721 221.419 360.546 221.419Z" fill="#E6E6E6"/>
<path d="M308.005 277.771C318.831 277.771 327.606 268.995 327.606 258.17C327.606 247.345 318.831 238.569 308.005 238.569C297.18 238.569 288.404 247.345 288.404 258.17C288.404 268.995 297.18 277.771 308.005 277.771Z" fill="#E6E6E6"/>
<path d="M412.685 334.025C423.511 334.025 432.286 325.25 432.286 314.425C432.286 303.6 423.511 294.824 412.685 294.824C401.86 294.824 393.084 303.6 393.084 314.425C393.084 325.25 401.86 334.025 412.685 334.025Z" fill="#E6E6E6"/>
<path d="M334.692 334.025C360.176 334.025 380.835 325.25 380.835 314.425C380.835 303.6 360.176 294.824 334.692 294.824C309.207 294.824 288.548 303.6 288.548 314.425C288.548 325.25 309.207 334.025 334.692 334.025Z" fill="#E6E6E6"/>
<path d="M413.086 277.771C423.912 277.771 432.687 268.995 432.687 258.17C432.687 247.345 423.912 238.569 413.086 238.569C402.261 238.569 393.485 247.345 393.485 258.17C393.485 268.995 402.261 277.771 413.086 277.771Z" fill="#E6E6E6"/>
<path d="M360.546 277.771C371.371 277.771 380.146 268.995 380.146 258.17C380.146 247.345 371.371 238.569 360.546 238.569C349.721 238.569 340.945 247.345 340.945 258.17C340.945 268.995 349.721 277.771 360.546 277.771Z" fill="#F2C94C"/>
<path d="M364.398 22.8672H176.938C171.38 22.8672 166.86 27.3871 166.86 32.9455V101.808C166.86 107.366 171.38 111.886 176.938 111.886H364.398C369.956 111.886 374.476 107.366 374.476 101.808V32.9455C374.476 27.3871 369.956 22.8672 364.398 22.8672Z" fill="white"/>
<path d="M364.398 22.8672H176.938C171.38 22.8672 166.86 27.3871 166.86 32.9455V101.808C166.86 107.366 171.38 111.886 176.938 111.886H364.398C369.956 111.886 374.476 107.366 374.476 101.808V32.9455C374.476 27.3871 369.956 22.8672 364.398 22.8672ZM373.416 101.808C373.416 106.784 369.373 110.827 364.398 110.827H176.938C171.963 110.827 167.92 106.784 167.92 101.808V32.9455C167.92 27.9699 171.963 23.927 176.938 23.927H364.398C369.373 23.927 373.416 27.9699 373.416 32.9455V101.808Z" fill="#F2C94C"/>
<path d="M353.971 64.5184H187.365C185.786 64.5184 184.506 65.7982 184.506 67.3768C184.506 68.9555 185.786 70.2352 187.365 70.2352H353.971C355.55 70.2352 356.829 68.9555 356.829 67.3768C356.829 65.7982 355.55 64.5184 353.971 64.5184Z" fill="#F2C94C"/>
<path d="M55.4968 147.348L53.8271 157.291L68.6344 193.31L76.5789 189.226L68.8464 155.519L67.7351 142.656L55.4968 147.348Z" fill="#A0616A"/>
<path d="M71.8419 91.4106C71.8419 91.4106 64.0893 87.6551 58.0735 100.344C52.0577 113.033 52.8027 140.864 52.8027 140.864C52.8027 140.864 50.6122 142.95 52.0027 144.41C53.3932 145.87 54.6896 148.188 53.2711 150.859C52.5235 152.267 50.7932 155.022 53.6267 155.804C56.4601 156.587 69.714 152.89 69.714 152.89C69.714 152.89 74.67 150.67 71.854 149.175C69.0381 147.68 73.004 138.635 73.004 138.635L76.281 112.508L71.8419 91.4106Z" fill="#F2C94C"/>
<path d="M77.9292 207.071C81.041 206.116 82.2589 201.093 80.6495 195.852C79.0402 190.611 75.2129 187.137 72.1012 188.093C68.9894 189.048 67.7714 194.071 69.3808 199.312C70.9902 204.553 74.8174 208.027 77.9292 207.071Z" fill="#A0616A"/>
<path d="M151.316 361.441L158.737 359.449L154.587 329.879L143.634 332.819L151.316 361.441Z" fill="#A0616A"/>
<path d="M176.696 354.451C177.031 354.778 177.49 356.001 177.612 356.454C177.985 357.845 177.16 359.275 175.769 359.648L152.787 365.815C151.838 366.069 150.863 365.506 150.608 364.557L150.351 363.601C150.351 363.601 148.443 361.03 149.832 356.858C149.832 356.858 153.486 358.853 156.667 353.34L157.326 350.674L168.425 354.97L173.738 354.223C174.901 354.059 175.856 353.632 176.696 354.451H176.696Z" fill="#F2994A"/>
<path d="M78.5758 361.27L86.2592 361.269L89.9142 331.634L78.5742 331.635L78.5758 361.27Z" fill="#A0616A"/>
<path d="M104.9 361.096C105.139 361.499 105.265 362.8 105.265 363.268C105.265 364.708 104.098 365.876 102.658 365.876H78.8632C77.8806 365.876 77.0841 365.079 77.0841 364.097V363.106C77.0841 363.106 75.907 360.129 78.3305 356.46C78.3305 356.46 81.3425 359.333 85.8432 354.833L87.1704 352.429L96.7775 359.454L102.103 360.11C103.268 360.253 104.301 360.087 104.9 361.096Z" fill="#F2994A"/>
<path d="M129.711 184.739L149.915 271.825L159.668 342.19L144.341 344.28L101.843 224.45L92.0893 344.28L74.6721 345.673C74.6721 345.673 60.7382 203.55 67.0085 186.132L129.711 184.739Z" fill="#F2994A"/>
<path d="M153.759 81.7626L160.73 74.4786L168.735 36.3663L159.869 35.2774L147.313 67.4997L141 78.7626L153.759 81.7626Z" fill="#A0616A"/>
<path d="M108.792 118.832C108.792 118.832 115.317 130.862 127.426 123.75C139.535 116.638 152.341 88.6392 152.341 88.6392C152.341 88.6392 154.899 81.5215 157.574 80.1098C158.983 79.3657 162.611 78.5633 160.708 76.3233C158.805 74.0832 145.117 69.1859 145.117 69.1859C145.117 69.1859 139.771 68.2356 141.259 71.0553C142.747 73.875 137.859 72.1283 138.353 75.1124C138.846 78.0966 134.382 79.125 134.382 79.125L108.792 118.832H108.792Z" fill="#F2C94C"/>
<path d="M171.493 30.9826C173.109 25.7438 171.897 20.7192 168.786 19.7599C165.675 18.8007 161.844 22.27 160.228 27.5089C158.612 32.7478 159.824 37.7724 162.935 38.7316C166.046 39.6909 169.877 36.2215 171.493 30.9826Z" fill="#A0616A"/>
<path d="M109.659 77.1553H90.5838L89.8119 83.1695C89.8119 83.1695 65.7549 89.7851 66.3563 93.3936C66.9577 97.0021 70.5663 157.144 70.5663 157.144L67.5591 187.215C67.5591 187.215 121.687 210.069 130.107 183.005L125.897 151.731C125.897 151.731 136.122 98.2049 133.716 95.7993C131.31 93.3936 111.463 83.7709 111.463 83.7709L109.659 77.1553L109.659 77.1553Z" fill="#F2C94C"/>
<path d="M98.5788 77.2303C108.035 77.2303 115.7 69.565 115.7 60.1093C115.7 50.6536 108.035 42.9883 98.5788 42.9883C89.123 42.9883 81.4575 50.6536 81.4575 60.1093C81.4575 69.565 89.123 77.2303 98.5788 77.2303Z" fill="#A0616A"/>
<path d="M111.259 53.0665C113.446 52.8815 115.634 52.6966 117.821 52.5117C117.069 52.1668 116.286 51.7977 115.785 51.1393C115.284 50.4811 115.181 49.4409 115.786 48.8769C116.493 48.2178 117.664 48.567 118.437 49.1476C118.011 46.9255 116.685 44.8895 114.824 43.6023C112.551 42.0299 109.696 41.6258 106.955 41.2648C103.794 40.8483 100.632 40.4318 97.4704 40.0153C96.2788 39.8584 94.9377 39.74 94.0006 40.4928C92.9613 41.3277 92.8446 42.9063 91.9277 43.8739C90.6184 45.2555 88.3745 44.8479 86.5113 45.2366C83.8723 45.7873 81.883 48.1013 80.9642 50.6357C80.0454 53.1701 80.0115 55.9267 79.9881 58.6225C79.9619 61.6436 80.0829 65.0332 82.2681 67.1198C83.5993 68.391 87.095 72.8605 87.487 74.6591C87.7654 75.9364 99.1116 77.4921 101.571 77.4213L109.953 74.6591C110.776 71.0319 108.583 64.5086 106.624 61.3463C107.269 62.1982 110.329 59.8165 110.785 58.8502C111.241 57.8839 112.083 57.9509 112.651 57.0457C113.367 55.9033 109.915 53.1801 111.258 53.0665L111.259 53.0665Z" fill="#4F4F4F"/>
</g>
<defs>
<clipPath id="clip0_63_678">
<rect width="461" height="366.91" fill="white"/>
</clipPath>
</defs>
</svg>
