<svg width="903" height="166" viewBox="0 0 903 166" fill="none" xmlns="http://www.w3.org/2000/svg">
<path d="M41.5 1.1C38.3 1.6 34 2.5 32 3.1C19.1 7.3 5.79998 18.3 2.69998 27.4C-0.300024 36.2 0.999976 46.3 5.49998 50C7.19998 51.4 7.29998 51.3 6.59998 49.5C1.39998 37 2.09998 30.3 9.69998 20.3C13.1 15.9 24.3 8.4 31.5 5.9C39.1 3.2 53.7 2.3 61.1 4C64.1 4.7 66.8 5.5 67.3 5.7C67.7 5.9 65.3 8.9 61.9 12.3C56.8 17.3 36.8 43 31 51.9C29.5 54.2 29.4 54.2 23.7 52.7C17.5 51.1 16.7 52.1 22.8 54C24.8 54.7 26.8 55.5 27.2 55.9C27.6 56.2 22.7 63.9 16.4 73C10.2 82.1 4.99998 90.3 4.99998 91.2C4.99998 92.4 5.79998 93 7.29998 93C8.99998 93 12.1 89.3 22 75.1L34.4 57.3L47.6 57.2H60.7L57.1 67.4C52.9 79.6 52.2 89.2 55.4 91.6C59.7 94.7 67.6 92.1 77.6 84.3C85.1 78.4 85.4 78.4 82.1 84.5C79.7 88.9 79.3 90.6 80.1 91.6C80.7 92.4 81.8 93 82.4 93C83.1 93 87.2 88.8 91.5 83.7C118.2 52.5 136.2 39.3 124 59.8C118.4 69.3 115 78.2 115 83.4C115 92.3 120.5 93.3 132.4 86.5C136.7 84.1 142.6 80.3 145.4 78.1L150.6 74.2L149.7 79.4C148.5 85.7 150.1 90 154.1 91.4C157.8 92.7 164.1 89.5 171.4 82.7L177.1 77.3L176.5 80.9C175.7 85.7 177.3 89.8 180.6 91C182.7 91.8 184.3 91.6 188.5 89.6C196.9 85.8 217 71.9 217 69.9C217 69.4 212.8 71.8 207.8 75.1C196.9 82.3 185.9 88 183 88C178.4 88 182.1 77.2 193.3 57.6C195.8 53.2 197.6 49 197.3 48.3C196.4 45.9 193.1 46.9 191.5 50C190 53 188 53.3 188 50.5C188 48.6 184 46 181 46C173.5 46 158.3 57.7 154 66.9C152 70.9 150.4 72.5 143.6 76.8C117.2 93.3 114.3 91.9 125.9 68.5C133.2 53.8 134 50.8 131.6 47.5C128 42.5 116.8 51 98.3 72.7C92.6 79.4 87.7 85 87.5 85C87.3 85 90.3 79.3 94.1 72.3C104.4 53.8 107.2 48 106.6 46.4C105.3 42.9 102.7 45.9 95.4 59.5C87.7 73.9 87.6 74 79.7 79.7C55.4 97.2 51 93.3 61.6 63.8C64.2 56.5 64.6 56 68.4 54.5C72.4 53 72.4 53 69.2 53.3C66.5 53.6 66 53.4 66.5 52.1C66.8 51.2 69.5 44.2 72.5 36.4C80.8 14.8 80.9 10.8 73.5 6.4C65 1.5 52.9 -0.5 41.5 1.1ZM75.7 16.5C75.1 22 64.1 51.3 61.7 53.7C60.2 55.2 41.3 56.5 38.3 55.3C36.2 54.5 36.5 53.9 45.4 41.7C62.3 18.4 69.3 11 74.4 11C76.1 11 76.2 11.6 75.7 16.5ZM184.4 50.6C186.7 52.9 186.3 58.4 183.5 64C178.1 74.6 161.7 88.7 155.7 87.8C153.7 87.5 153.5 87 153.6 81.4C153.7 76.6 154.3 74.1 157 69.1C160.7 62.2 169.3 53.7 175.5 50.9C180.4 48.6 182.4 48.6 184.4 50.6Z" fill="white"/>
<path d="M643 0.599998C641.1 0.799995 634.6 1.5 628.5 2C598.2 4.9 581 12.1 575.1 24.3C571.1 32.6 573.1 44.2 579.5 50C582.2 52.5 582.2 52.5 578.9 46.5C576.1 41.5 575.5 39.5 575.5 34.5C575.5 18 590 9.2 624 5C640.8 2.9 640.6 1.5 627.3 23.7L615.9 43H608.4C604.1 43 601 43.4 601 44C601 44.6 603.8 45 607.5 45C611.1 45 614 45.3 614 45.7C614 46.2 608.4 56.4 601.5 68.4C594.6 80.5 589 90.7 589 91.2C589 91.6 589.8 92.4 590.9 92.9C593.4 94.3 593.5 94.2 608.6 67.8L621.5 45H632.3C645.9 45 646.6 43.2 633 42.8L623.1 42.5L633.5 24C639.3 13.8 644 5 644 4.4C644 2.2 667.9 1.2 680.2 3C688.5 4.2 691.8 5.7 693.5 8.9C694.7 11.2 694.9 11.3 695.5 9.7C696.5 7.3 694.4 5.1 689 2.6C685 0.900002 682.2 0.599998 665.5 0.400002C655.1 0.299995 644.9 0.400002 643 0.599998Z" fill="white"/>
<path d="M280.5 2.1C271.5 3.3 257.3 7.3 250.3 10.7C243.5 14 237.4 19.8 234.9 25.3C231.6 32.7 232.8 43.2 237.6 49C241.2 53.2 242.5 52.7 239.6 48.2C226.9 28.8 243.8 9.5 277.5 5.1C288.9 3.6 300 2.9 300 3.6C300 3.9 297.1 8.5 293.7 13.8C290.2 19.2 280.3 35.5 271.7 50.2C263.1 64.9 254.5 79.4 252.5 82.6C248.6 88.6 248.3 91.5 251.5 91.5C253.9 91.5 257 87 271.5 62C277.4 51.8 282.6 43.1 283 42.7C283.4 42.3 285.4 43.7 287.6 45.8C296.1 54.3 313.5 57.1 325 51.9C335.3 47.1 341.8 39.5 344.5 29.4C348 15.8 341.8 6.5 326.5 2.6C319.9 0.799995 293 0.599998 280.5 2.1ZM327 5.3C335.4 8.9 339 13.9 339 22.3C339 46.8 300.9 61.1 286.7 41.8L284.7 39.2L291 28.3C294.5 22.4 299.4 14.2 301.9 10.1L306.5 2.8L315 3.3C319.7 3.6 325.1 4.5 327 5.3Z" fill="white"/>
<path d="M504.9 6.8C494.6 13.4 479.1 34.6 463.6 63.2C459.2 71.4 458.5 72.2 450.9 77C440 84 429.3 89.3 427.5 88.6C426.7 88.3 426 86.9 426 85.5C426 83.2 434.8 64.7 441.6 52.8C444.3 48.1 444.3 45 441.6 45C440.1 45 432.9 56.3 427.5 67.1C425.4 71.2 423.5 73 417.2 77.1C413 79.8 406.2 83.7 402.2 85.7C395.6 89 394.8 89.2 393.3 87.8C391.9 86.3 391.9 85.8 393.4 81.3C394.3 78.7 398.6 70 402.9 62C407.2 54.1 410.5 47 410.3 46.3C410 45.6 409 45 407.9 45C406.7 45 404.5 47.9 400.6 54.7C397.6 60.1 394.6 65.7 393.9 67.3C391.9 71.7 365.3 88 360 88C355.4 88 359.1 77.2 370.3 57.6C372.8 53.2 374.6 49 374.3 48.3C373.4 45.9 370.1 46.9 368.5 50C367 53 365 53.3 365 50.5C365 48.6 361 46 358 46C350.2 46 335.5 57.6 330.6 67.6C326.7 75.4 325.3 83.8 327.1 87.5C330.3 94.2 337.8 92.5 348.4 82.7L354.1 77.3L353.5 80.9C352.7 85.7 354.3 89.8 357.6 91C361.1 92.4 367.8 89.3 380.6 80.5C388.5 75.2 390.1 74.4 389.5 76.2C389.2 77.5 388.6 80.6 388.3 83.1C387.9 87 388.1 88.1 389.9 89.9C391 91 393 92 394.1 92C396.9 92 406.9 86.9 414.5 81.6C417.8 79.3 421 77.1 421.5 76.8C422.1 76.4 422.5 78.6 422.5 82.8C422.5 88.9 422.7 89.5 425.1 90.9C427.5 92.2 428.2 92.2 432.4 90.6C435 89.6 441.2 86 446.3 82.7C451.4 79.3 456 76.2 456.6 75.8C457.3 75.3 457.3 76.6 456.6 80C455.9 83.5 456 85.6 456.8 87.5C459.6 93.6 465.9 92.2 480.6 82.4C485.9 78.9 490.4 76 490.6 76C490.9 76 490.8 78.1 490.5 80.7C489.8 86.4 491.4 90.1 495.1 91.4C498.8 92.7 505.1 89.4 512.4 82.7L518.1 77.3L517.5 80.9C516.7 85.7 518.3 89.8 521.6 91C523.7 91.8 525.3 91.6 529.5 89.6C537.9 85.8 558 71.9 558 69.9C558 69.4 553.8 71.8 548.8 75.1C537.9 82.3 526.9 88 524 88C519.4 88 523.1 77.2 534.3 57.6C536.8 53.2 538.6 49 538.3 48.3C537.4 45.9 534.1 46.9 532.5 50C531 53 529 53.3 529 50.5C529 48.6 525 46 522 46C514.4 46 499.3 57.8 494.9 67.1C492.8 71.5 491.4 72.9 484 77.5C458.8 93 455.9 91.6 466.9 69.5L472.8 57.5L491.2 39.9C501.3 30.2 510.8 20.5 512.3 18.3C516 12.9 517 7.2 514.5 5.4C511.8 3.4 509.9 3.7 504.9 6.8ZM513.2 9.9C513 11.2 511.7 14.2 510.3 16.4C507.6 20.7 480.3 49 478.8 49C476.8 49 498 18.6 505.1 11.2C509.9 6.3 513.8 5.7 513.2 9.9ZM361.4 50.6C363.7 52.9 363.3 58.4 360.5 64C355.1 74.6 338.7 88.7 332.7 87.8C330.7 87.5 330.5 87 330.6 81.4C330.7 76.6 331.3 74.1 334 69.1C337.7 62.2 346.3 53.7 352.5 50.9C357.4 48.6 359.4 48.6 361.4 50.6ZM525.4 50.6C527.7 52.9 527.3 58.4 524.5 64C519.1 74.6 502.7 88.7 496.7 87.8C494.7 87.5 494.5 87 494.6 81.4C494.7 76.6 495.3 74.1 498 69.1C501.7 62.2 510.3 53.7 516.5 50.9C521.4 48.6 523.4 48.6 525.4 50.6Z" fill="white"/>
<path d="M762.6 34.3C760.2 36 760.9 39.4 763.7 39.8C766.7 40.2 768.6 36.7 766.4 34.6C764.5 32.7 764.8 32.7 762.6 34.3Z" fill="white"/>
<path d="M649.4 41.5C647.7 43.2 647 44.9 647.2 46.8C647.4 49 648.7 50.1 654.5 53C661 56.3 661.5 56.7 661.8 60.1C662 62.5 661 65.9 658.5 71C652.9 82.9 654 91 661.4 91C664.8 91 671.8 87.5 681.9 80.6L689.8 75.2L689.3 78.4C688.7 82.2 691.3 88.5 694 90C698.5 92.4 704.6 92.9 711 91.4C717.8 89.8 731.3 83.5 736.7 79.4C738.4 78.1 740 77 740.3 77C740.5 77 740.5 79.4 740.2 82.4C739.8 87 740.1 88.1 742 90C744.9 92.9 749 92.2 759.1 86.9C772 80.2 785.8 67.3 791.1 56.8C792.2 54.7 793.2 53 793.5 53C793.7 53 796 54 798.5 55.2C804.7 58.2 805 60.1 800.6 69.8C794.2 84.1 794.8 92 802.5 92C806.7 92 820.7 86.6 834.2 79.9L843.9 75L843.3 78.4C842.7 82.2 845.3 88.5 848 90C855.5 94 865.9 92.7 879.2 86C886.9 82.2 898.6 74.4 901 71.5C903.1 69 901.5 69.8 891.8 76C880.2 83.5 869 88 861.8 88C852.4 88 847.2 82.7 850 76C851 73.5 851.8 73 854.5 73C859.7 73 870 69.4 875.7 65.5C884.2 59.8 890.3 50.1 887.6 46.5C886.5 45 885.4 44.8 880.7 45.3C874 46 865.4 50.2 857.8 56.7C853 60.8 845.7 69.4 844.8 72C843.9 74.8 804.8 89.9 801.6 88.7C799.3 87.8 799.8 85.5 804.6 74.2C811.1 59 810.1 55 798.7 51L795.9 50L798 47.2C800.3 44 799.9 41.4 796.8 40.4C794.1 39.6 790.5 41.6 789.1 44.8C788.1 46.9 788.2 47.8 789.8 49.9C791.7 52.5 791.7 52.5 789.2 56.5C784.7 63.6 779.1 69.7 771.7 75.3C762.4 82.5 751.8 88 747.4 88C744.5 88 744 87.7 744 85.5C744 84.2 748.1 75.1 753 65.4C758 55.7 762 47.1 762 46.4C762 45.6 761.1 45 760 45C758.1 45 751.8 54.6 745.1 67.8C742.6 72.8 741.3 74.1 734.4 78.2C718.9 87.5 706.3 90.3 699.3 86C695.5 83.7 694.3 80.1 696 76C697 73.5 697.8 73 700.5 73C705.7 73 716 69.4 721.7 65.5C730.2 59.8 736.3 50.1 733.6 46.5C732.5 45 731.4 44.8 726.7 45.3C716.4 46.3 702.8 55.5 694.1 67.1C689.6 73.2 683.2 77.8 670.1 84.5C658.4 90.5 656.7 88.3 662.6 74.9C667.3 64.4 668.1 57.5 665.1 54.3C663.9 53.1 661.2 51.5 659 50.9C654.6 49.6 654.2 48.9 656.5 47C658.6 45.2 658.4 41.3 656.1 40C653.2 38.5 652.2 38.7 649.4 41.5ZM655.8 43.4C656.3 45.7 653.2 49 651.4 48.3C649.5 47.6 649.6 45.1 651.7 42.8C653.6 40.7 655.4 40.9 655.8 43.4ZM797.7 43.5C798 44.4 797.4 46 796.5 47C793.1 50.8 789.7 48.7 792.4 44.5C794.3 41.7 796.8 41.2 797.7 43.5ZM732.4 47.9C734.6 51.4 723.7 63.5 715 67.4C708.5 70.3 699 72.3 699 70.8C699 69 704.8 61.4 709.3 57.3C717.1 50.1 730.4 44.7 732.4 47.9ZM886.4 47.9C888.6 51.4 877.7 63.5 869 67.4C862.5 70.3 853 72.3 853 70.8C853 69 858.8 61.4 863.3 57.3C871.1 50.1 884.4 44.7 886.4 47.9Z" fill="white"/>
<path d="M187.5 118.4C180.4 121.1 175 129.1 175 137C175.1 143.9 181.8 152.1 189 154C191.9 154.8 193 155.6 193 157C193 158.3 193.7 159 195 159C196.4 159 197 159.7 197 161.1C197 163 196.5 163.2 192.5 162.8C189.6 162.6 188 162.9 188 163.6C188 165.1 194.1 166.3 197.4 165.4C201.9 164.3 201.9 158.5 197.4 157.4C193.9 156.5 194.5 155.3 198.7 154.5C204.4 153.5 206 152.3 206 149.1V146.2L202.3 148.1C195.1 151.8 186.7 149.9 183 143.7C180.6 139.8 180.4 133 182.5 128.9C186 122.3 195.8 120 203.3 124L207 126V123.5C207 118.6 195.3 115.6 187.5 118.4Z" fill="white"/>
<path d="M258.1 118.2C256.8 118.9 254.8 120.7 253.7 122.2C252 124.5 251.8 125.6 252.6 128.7C253.3 131.8 254.4 133 259 135.7C267.6 140.7 269 141.9 269 144.5C269 150.1 261.9 151.9 257.4 147.5C254.7 144.8 254.2 144.6 252.2 145.9C250.1 147.2 252.7 151.6 256.5 153.5C265.1 157.5 275 152.3 275 143.6C275 140.4 270.9 135.6 266.8 134C259 130.8 255.9 126.5 259.2 123.2C261 121.4 265.8 121.8 267.8 123.8C269.3 125.3 270 125.5 271.3 124.5C272.3 123.8 273 122.8 273 122.3C273 118.6 262.6 115.8 258.1 118.2Z" fill="white"/>
<path d="M368.1 118.2C366.8 118.9 364.8 120.7 363.7 122.2C362 124.5 361.8 125.6 362.6 128.7C363.3 131.8 364.4 133 369 135.7C377.6 140.7 379 141.9 379 144.5C379 150.1 371.9 151.9 367.4 147.5C364.7 144.8 364.2 144.6 362.2 145.9C360.1 147.2 362.7 151.6 366.5 153.5C375.1 157.5 385 152.3 385 143.6C385 140.4 380.9 135.6 376.8 134C369 130.8 365.9 126.5 369.2 123.2C371 121.4 375.8 121.8 377.8 123.8C379.3 125.3 380 125.5 381.3 124.5C382.3 123.8 383 122.8 383 122.3C383 118.6 372.6 115.8 368.1 118.2Z" fill="white"/>
<path d="M399.1 118.2C397.8 118.9 395.8 120.7 394.7 122.2C393 124.5 392.8 125.6 393.6 128.7C394.3 131.8 395.4 133 400 135.7C408.6 140.7 410 141.9 410 144.5C410 150.1 402.9 151.9 398.4 147.5C395.7 144.8 395.2 144.6 393.2 145.9C391.1 147.2 393.7 151.6 397.5 153.5C406.1 157.5 416 152.3 416 143.6C416 140.4 411.9 135.6 407.8 134C400 130.8 396.9 126.5 400.2 123.2C402 121.4 406.8 121.8 408.8 123.8C410.3 125.3 411 125.5 412.3 124.5C413.3 123.8 414 122.8 414 122.3C414 118.6 403.6 115.8 399.1 118.2Z" fill="white"/>
<path d="M437.1 118.2C423.3 122.9 419.9 141.7 431.3 150.4C441 157.8 454.8 155.5 461.2 145.2C464.7 139.5 464.4 131.4 460.5 125.9C455.4 118.7 445.4 115.4 437.1 118.2ZM451.4 123.9C455.7 126.8 458 130.9 458 136C458 150.2 439.8 155.3 431.9 143.4C427.9 137.3 430.1 128.2 436.6 123.9C440.4 121.4 447.6 121.4 451.4 123.9Z" fill="white"/>
<path d="M530.1 118.2C528.8 118.9 526.8 120.7 525.7 122.2C524 124.5 523.8 125.6 524.6 128.7C525.3 131.8 526.4 133 531 135.7C539.6 140.7 541 141.9 541 144.5C541 150.1 533.9 151.9 529.4 147.5C526.7 144.8 526.2 144.6 524.2 145.9C522.1 147.2 524.7 151.6 528.5 153.5C537.1 157.5 547 152.3 547 143.6C547 140.4 542.9 135.6 538.8 134C531 130.8 527.9 126.5 531.2 123.2C533 121.4 537.8 121.8 539.8 123.8C541.3 125.3 542 125.5 543.3 124.5C544.3 123.8 545 122.8 545 122.3C545 118.6 534.6 115.8 530.1 118.2Z" fill="white"/>
<path d="M4 136.5V155H7H10V146.5V138H17.5C24.8 138 25 137.9 25 135.5C25 133.1 24.8 133 17.5 133H10V128V123H17.5C24.8 123 25 122.9 25 120.5V118H14.5H4V136.5Z" fill="white"/>
<path d="M34 136.5V155H37H40V136.5V118H37H34V136.5Z" fill="white"/>
<path d="M51 136.3V155H54H57V142.4V129.8L68.8 140.7C75.2 146.6 81.3 152.1 82.3 152.9C83.9 154.2 84 153.2 84 136.1V118H81H78V130.7V143.5L67.8 133.5C62.1 128 56 122.1 54.3 120.5L51 117.6V136.3Z" fill="white"/>
<path d="M132 136.3V155H135H138V142.4V129.8L149.8 140.7C156.2 146.6 162.3 152.1 163.3 152.9C164.9 154.2 165 153.2 165 136.1V118H162H159V130.7V143.5L148.8 133.5C143.1 128 137 122.1 135.3 120.5L132 117.6V136.3Z" fill="white"/>
<path d="M302 136.5V155H305H308V146.5V138H311.4C318.8 138 324 133.9 324 128C324 124.3 321.2 120.3 317.9 119.1C316.1 118.5 311.8 118 308.4 118H302V136.5ZM316.1 124C318.3 125.2 318.7 129.9 316.8 131.8C316.1 132.5 313.9 133 311.8 133H308V128C308 123.1 308.1 123 311.1 123C312.8 123 315 123.5 316.1 124Z" fill="white"/>
<path d="M332 136.5V155H342.5H353V152.5C353 150.1 352.8 150 345.5 150H338V144V138H345.5C352.8 138 353 137.9 353 135.5C353 133.1 352.8 133 345.5 133H338V128V123H345.5C352.8 123 353 122.9 353 120.5V118H342.5H332V136.5Z" fill="white"/>
<path d="M508 136.5V155H511H514V136.5V118H511H508V136.5Z" fill="white"/>
<path d="M99.1 136.9L90 155H93.3C96.3 155 96.7 154.6 98.5 150L100.4 145H108.1H115.7L117.8 150C119.6 154.4 120.2 155 122.9 155H125.9L117.3 137.2C112.6 127.5 108.6 119.3 108.4 119.1C108.3 118.9 104 126.9 99.1 136.9ZM112.6 139.7C112.4 139.9 110.2 140 107.8 139.8L103.4 139.5L105.8 134.2L108.2 128.8L110.6 134.1C112 136.9 112.9 139.5 112.6 139.7Z" fill="white"/>
<path d="M220.1 136.9L211 155H214.3C217.3 155 217.7 154.6 219.5 150L221.4 145H229.1H236.7L238.8 150C240.6 154.4 241.2 155 243.9 155H246.9L238.3 137.2C233.6 127.5 229.6 119.3 229.4 119.1C229.3 118.9 225 126.9 220.1 136.9ZM233.6 139.7C233.4 139.9 231.2 140 228.8 139.8L224.4 139.5L226.8 134.2L229.2 128.8L231.6 134.1C233 136.9 233.9 139.5 233.6 139.7Z" fill="white"/>
<path d="M475.1 136.9L466 155H469.3C472.3 155 472.7 154.6 474.5 150L476.4 145H484.1H491.7L493.8 150C495.6 154.4 496.2 155 498.9 155H501.9L493.3 137.2C488.6 127.5 484.6 119.3 484.4 119.1C484.3 118.9 480 126.9 475.1 136.9ZM488.6 139.7C488.4 139.9 486.2 140 483.8 139.8L479.4 139.5L481.8 134.2L484.2 128.8L486.6 134.1C488 136.9 488.9 139.5 488.6 139.7Z" fill="white"/>
<path d="M576.6 125.4C573.7 128.2 573.4 130.3 575.4 133.9C576.6 136.1 576.5 136.5 573.9 138.9C570 142.4 569.2 146.8 571.9 150.2C574.9 153.9 579.1 154.6 584.1 152.2C588 150.2 588.1 150.2 589.4 152.2C590.2 153.3 591.6 154 592.5 153.8C594 153.5 593.9 153.2 592 150.7C589.9 148.1 589.9 147.8 591.4 146.1C593.1 144.2 593.5 142 592.1 142C591.6 142 590.7 142.7 590 143.5C588.2 145.7 587.6 145.4 584.5 141.4L581.8 137.9L584.1 135.4C585.6 133.8 586.4 131.7 586.4 129.5C586.4 125.5 585.6 124.4 581.8 123.5C579.7 123 578.5 123.4 576.6 125.4ZM583.8 129.1C584 130.7 583.3 132.3 582 133.5C579.8 135.4 579.8 135.4 578.4 133.5C576.9 131.5 576.5 127.8 577.7 126.6C578.1 126.2 579.6 126 581 126.2C582.8 126.4 583.6 127.2 583.8 129.1ZM583.9 149.2C581.3 151.4 576.7 151.5 574.6 149.4C572.2 147 572.7 143.4 575.8 141L578.5 138.8L582.3 143.2L586 147.5L583.9 149.2Z" fill="white"/>
<path d="M613 142C613 152.9 613.2 155 614.5 155C615.8 155 616 152.9 616 142C616 131.1 615.8 129 614.5 129C613.2 129 613 131.1 613 142Z" fill="white"/>
<path d="M624 141.7C624 152.9 624.2 155 625.5 155C626.7 155 627 153.3 627 145.3V135.5L636.5 145L646 154.5V141.7C646 131.1 645.8 129 644.5 129C643.3 129 643 130.8 643 138.7L642.9 148.5L633.5 138.5L624 128.5V141.7Z" fill="white"/>
<path d="M656.4 141.4C659.2 148.3 661.8 153.5 662.1 153.2C663.6 151.4 672.2 129.9 671.6 129.3C670.5 128.2 669.3 130.2 666 139C664.2 143.7 662.5 147.8 662.1 148.2C661.8 148.6 659.7 144.4 657.6 139C655.4 133.5 653.1 129 652.5 129C651.7 129 653.2 133.7 656.4 141.4Z" fill="white"/>
<path d="M677 142V155H684C689.6 155 691 154.7 691 153.5C691 152.3 689.7 152 685.5 152H680V147V142H685.5C689.7 142 691 141.7 691 140.5C691 139.3 689.7 139 685.5 139H680V135.5V132H685.5C689.7 132 691 131.7 691 130.5C691 129.3 689.6 129 684 129H677V142Z" fill="white"/>
<path d="M699.5 131.5C695.4 135.6 696.7 138.8 704 142.5C709.2 145.1 710.5 148.1 707.8 150.8C705.9 152.7 701.3 152.2 699.8 150.1C699 149 697.9 148.4 697.2 148.9C695.4 150 698.5 153.7 701.8 154.5C708.1 155.8 713.5 150.7 711.2 145.5C710.6 144.2 707.8 141.9 705 140.5C700.5 138.2 699.9 137.6 700.2 135.2C700.6 131.9 704.2 131 707 133.5C708.4 134.7 709 134.8 709.6 133.9C710.5 132.4 706.6 129 703.8 129C702.8 129 700.8 130.1 699.5 131.5Z" fill="white"/>
<path d="M716 130.5C716 131.5 717.1 132 719.5 132H723V143.5C723 153.1 723.3 155 724.5 155C725.7 155 726 153.1 726 143.5V132H729.5C731.9 132 733 131.5 733 130.5C733 129.3 731.4 129 724.5 129C717.6 129 716 129.3 716 130.5Z" fill="white"/>
<path d="M739 142C739 152.9 739.2 155 740.5 155C741.8 155 742 152.9 742 142C742 131.1 741.8 129 740.5 129C739.2 129 739 131.1 739 142Z" fill="white"/>
<path d="M782 142V155H789C794.6 155 796 154.7 796 153.5C796 152.3 794.7 152 790.5 152H785V147V142H790.5C794.7 142 796 141.7 796 140.5C796 139.3 794.7 139 790.5 139H785V135.5V132H790.5C794.7 132 796 131.7 796 130.5C796 129.3 794.6 129 789 129H782V142Z" fill="white"/>
<path d="M803 141.7C803 152.9 803.2 155 804.5 155C805.7 155 806 153.3 806 145.3V135.5L815.5 145L825 154.5V141.7C825 131.1 824.8 129 823.5 129C822.3 129 822 130.8 822 138.7L821.9 148.5L812.5 138.5L803 128.5V141.7Z" fill="white"/>
<path d="M831 130.5C831 131.5 832.1 132 834.5 132H838V143.5C838 153.1 838.3 155 839.5 155C840.7 155 841 153.1 841 143.5V132H844.5C846.9 132 848 131.5 848 130.5C848 129.3 846.4 129 839.5 129C832.6 129 831 129.3 831 130.5Z" fill="white"/>
<path d="M859.6 130C853 132 848.9 139.3 850.9 145.2C855.4 158.2 874.6 157.3 877.5 144C878.3 140.3 875.6 134.4 872 131.9C868.9 129.7 863.4 128.8 859.6 130ZM869.3 133.1C879.2 138.2 875.3 152 864 152C852.8 152 848.8 138.5 858.5 133.2C861.1 131.7 866.6 131.7 869.3 133.1Z" fill="white"/>
<path d="M886.5 131.5C882.4 135.6 883.7 138.8 891 142.5C896.2 145.1 897.5 148.1 894.8 150.8C892.9 152.7 888.3 152.2 886.8 150.1C886 149 884.9 148.4 884.2 148.9C882.4 150 885.5 153.7 888.8 154.5C895.1 155.8 900.5 150.7 898.2 145.5C897.6 144.2 894.8 141.9 892 140.5C887.5 138.2 886.9 137.6 887.2 135.2C887.6 131.9 891.2 131 894 133.5C895.4 134.7 896 134.8 896.6 133.9C897.5 132.4 893.6 129 890.8 129C889.8 129 887.8 130.1 886.5 131.5Z" fill="white"/>
<path d="M752.1 135.2C748.8 151.5 748.3 155 749.5 155C750.2 155 751.2 151.9 752 147.2C752.7 143 753.6 139.1 754 138.7C754.4 138.2 756.2 141.3 758 145.4C759.9 149.6 761.6 153 762 153C762.4 153 764.1 149.6 766 145.4C767.8 141.3 769.6 138.2 770 138.7C770.4 139.1 771.3 143 772 147.2C772.8 152 773.8 155 774.5 155C775.4 155 775.1 151.8 773.4 142.9C772.1 136.2 770.9 130.5 770.6 130.3C770.4 130.1 768.5 134.2 766.4 139.4C764.4 144.7 762.4 149 762 149C761.6 149 759.6 144.7 757.6 139.5C755.5 134.3 753.7 130 753.5 130C753.3 130 752.7 132.4 752.1 135.2Z" fill="white"/>
</svg>
